<?xml version="1.0" encoding="UTF-8" standalone="no"?>
<!-- Created with Inkscape (http://www.inkscape.org/) -->

<svg
   xmlns:dc="http://purl.org/dc/elements/1.1/"
   xmlns:cc="http://creativecommons.org/ns#"
   xmlns:rdf="http://www.w3.org/1999/02/22-rdf-syntax-ns#"
   xmlns:svg="http://www.w3.org/2000/svg"
   xmlns="http://www.w3.org/2000/svg"
   xmlns:sodipodi="http://sodipodi.sourceforge.net/DTD/sodipodi-0.dtd"
   xmlns:inkscape="http://www.inkscape.org/namespaces/inkscape"
   width="210mm"
   height="297mm"
   viewBox="0 0 210 297"
   version="1.1"
   id="svg8"
   inkscape:version="0.92.3 (2405546, 2018-03-11)"
   sodipodi:docname="logo.svg">
  <defs
     id="defs2" />
  <sodipodi:namedview
     id="base"
     pagecolor="#ffffff"
     bordercolor="#666666"
     borderopacity="1.0"
     inkscape:pageopacity="0.0"
     inkscape:pageshadow="2"
     inkscape:zoom="0.7"
     inkscape:cx="329.17109"
     inkscape:cy="592.82126"
     inkscape:document-units="mm"
     inkscape:current-layer="layer1"
     showgrid="false"
     inkscape:window-width="2560"
     inkscape:window-height="1407"
     inkscape:window-x="0"
     inkscape:window-y="0"
     inkscape:window-maximized="1" />
  <metadata
     id="metadata5">
    <rdf:RDF>
      <cc:Work
         rdf:about="">
        <dc:format>image/svg+xml</dc:format>
        <dc:type
           rdf:resource="http://purl.org/dc/dcmitype/StillImage" />
        <dc:title />
      </cc:Work>
    </rdf:RDF>
  </metadata>
  <g
     inkscape:label="Layer 1"
     inkscape:groupmode="layer"
     id="layer1">
    <rect
       style="fill:#e9c6af;fill-opacity:1;stroke-width:1.29264259;stroke-linecap:round;stroke-miterlimit:4;stroke-dasharray:none"
       id="rect832"
       width="448.68219"
       height="148.16869"
       x="-146.97481"
       y="15.785928"
       transform="matrix(1,0,-0.0052205,0.99998637,0,0)" />
    <g
       id="g842"
       transform="matrix(0.78982786,-0.13926796,0.13926796,0.78982786,-141.26373,35.897633)"
       style="stroke-width:1.87029567;stroke-miterlimit:4;stroke-dasharray:none">
      <g
         id="g833"
         style="stroke-width:1.87029567;stroke-miterlimit:4;stroke-dasharray:none">
        <path
           style="fill:none;stroke:#000000;stroke-width:1.87029567;stroke-linecap:round;stroke-linejoin:miter;stroke-miterlimit:4;stroke-dasharray:none;stroke-opacity:1"
           d="M 37.041663,92.136904 C 23.809607,58.853805 73.240606,38.911675 97.423356,60.008928"
           id="path828"
           inkscape:connector-curvature="0"
           sodipodi:nodetypes="cc" />
        <path
           style="fill:none;stroke:#000000;stroke-width:1.87029567;stroke-linecap:round;stroke-linejoin:miter;stroke-miterlimit:4;stroke-dasharray:none;stroke-opacity:1"
           d="m 39.970987,97.428572 c 29.202952,29.590578 76.138673,3.822458 61.137643,-24.473964 -2.131114,-3.55185 -2.362354,-3.13121 -2.362354,-6.69269"
           id="path830"
           inkscape:connector-curvature="0"
           sodipodi:nodetypes="ccc" />
        <path
           style="fill:none;stroke:#000000;stroke-width:1.87029567;stroke-linecap:round;stroke-linejoin:miter;stroke-miterlimit:4;stroke-dasharray:none;stroke-opacity:1"
           d="m 85.895088,76.261905 c -1.28751,5.92966 -7.382,7.96098 -12.28423,9.92187 -11.2937,4.51749 -19.4443,9.531022 -32.31696,10.961312 -2.58413,0.28713 -5.39674,-0.22467 -7.9375,0.28348 -0.92711,0.18542 -2.45684,2.36288 -2.45684,1.41741 0,-2.26385 5.30528,-3.42901 5.95312,-4.724702 0.19721,-0.39441 -1.5417,0.38287 -1.32292,0 0.7566,-1.32404 4.66909,-1.7565 3.59078,-2.83482 -2.05168,-2.05167 3.40624,-3.69417 4.53571,-5.95312 0.0273,-0.0546 -1.05942,0.07 -0.85044,-0.66146 0.21209,-0.74233 0.7831,-1.54992 1.22842,-2.17336 2.52216,-3.53104 15.23033,-10.01824 20.31622,-10.58334"
           id="path832"
           inkscape:connector-curvature="0" />
        <path
           style="fill:none;stroke:#000000;stroke-width:1.87029567;stroke-linecap:round;stroke-linejoin:miter;stroke-miterlimit:4;stroke-dasharray:none;stroke-opacity:1"
           d="m 97.423356,60.008928 c 1.20094,-0.20021 12.717634,-0.93377 4.157744,1.5119 -2.642924,0.75513 -4.004154,2.26786 -6.992564,2.26786"
           id="path834"
           inkscape:connector-curvature="0"
           sodipodi:nodetypes="ccc" />
        <path
           style="fill:none;stroke:#000000;stroke-width:1.87029567;stroke-linecap:round;stroke-linejoin:miter;stroke-miterlimit:4;stroke-dasharray:none;stroke-opacity:1"
           d="m 84.666666,61.615328 c -3.79281,1.01628 -0.82403,5.54334 2.87773,2.76701 2.33642,-2.33642 -0.70327,-3.58243 -2.87773,-2.76701 z"
           id="path836"
           inkscape:connector-curvature="0"
           sodipodi:nodetypes="ccc" />
        <path
           style="fill:none;stroke:#000000;stroke-width:1.87029567;stroke-linecap:round;stroke-linejoin:miter;stroke-miterlimit:4;stroke-dasharray:none;stroke-opacity:1"
           d="m 99.316316,63.688168 c 5.284244,0.28249 7.991984,-1.529 5.311984,0.50115 -1.80811,2.07038 -4.53416,1.40429 -6.614924,2.03793 -0.24333,0.0869 -2.66513,0.7684 -2.93997,0.7684"
           id="path840"
           inkscape:connector-curvature="0"
           sodipodi:nodetypes="cccc" />
      </g>
    </g>
    <flowRoot
       xml:space="preserve"
       id="flowRoot880"
       style="font-style:normal;font-variant:normal;font-weight:normal;font-stretch:normal;font-size:40px;line-height:1.25;font-family:rsfs10;-inkscape-font-specification:rsfs10;letter-spacing:0px;word-spacing:0px;fill:#000000;fill-opacity:1;stroke:none"
       transform="matrix(0.26458333,0,0,0.26458333,-239.70175,-35.786789)"><flowRegion
         id="flowRegion882"
         style="font-style:normal;font-variant:normal;font-weight:normal;font-stretch:normal;font-family:rsfs10;-inkscape-font-specification:rsfs10"><rect
           id="rect884"
           width="1233.9285"
           height="498.57141"
           x="770"
           y="353.59113"
           style="font-style:normal;font-variant:normal;font-weight:normal;font-stretch:normal;font-family:rsfs10;-inkscape-font-specification:rsfs10" /></flowRegion><flowPara
         id="flowPara886"
         style="font-style:normal;font-variant:normal;font-weight:normal;font-stretch:normal;font-size:226.66667175px;font-family:Roboto;-inkscape-font-specification:Roboto">PTAKOPĚT</flowPara></flowRoot>  </g>
</svg>
