<?xml version="1.0" encoding="UTF-8" standalone="no"?>
<!-- Created with Inkscape (http://www.inkscape.org/) -->

<svg
   xmlns:dc="http://purl.org/dc/elements/1.1/"
   xmlns:cc="http://creativecommons.org/ns#"
   xmlns:rdf="http://www.w3.org/1999/02/22-rdf-syntax-ns#"
   xmlns:svg="http://www.w3.org/2000/svg"
   xmlns="http://www.w3.org/2000/svg"
   xmlns:sodipodi="http://sodipodi.sourceforge.net/DTD/sodipodi-0.dtd"
   xmlns:inkscape="http://www.inkscape.org/namespaces/inkscape"
   width="210mm"
   height="297mm"
   viewBox="0 0 210 297"
   version="1.1"
   id="svg8"
   inkscape:version="0.92.2 2405546, 2018-03-11"
   sodipodi:docname="translation_flow.svg">
  <defs
     id="defs2">
    <inkscape:perspective
       sodipodi:type="inkscape:persp3d"
       inkscape:vp_x="0 : 148.5 : 1"
       inkscape:vp_y="0 : 1000 : 0"
       inkscape:vp_z="210 : 148.5 : 1"
       inkscape:persp3d-origin="105 : 99 : 1"
       id="perspective3876" />
  </defs>
  <sodipodi:namedview
     id="base"
     pagecolor="#ffffff"
     bordercolor="#666666"
     borderopacity="1.0"
     inkscape:pageopacity="0.0"
     inkscape:pageshadow="2"
     inkscape:zoom="0.18920455"
     inkscape:cx="464.98686"
     inkscape:cy="164.66663"
     inkscape:document-units="mm"
     inkscape:current-layer="layer1"
     showgrid="false"
     inkscape:window-width="1920"
     inkscape:window-height="1016"
     inkscape:window-x="0"
     inkscape:window-y="27"
     inkscape:window-maximized="1" />
  <metadata
     id="metadata5">
    <rdf:RDF>
      <cc:Work
         rdf:about="">
        <dc:format>image/svg+xml</dc:format>
        <dc:type
           rdf:resource="http://purl.org/dc/dcmitype/StillImage" />
        <dc:title></dc:title>
      </cc:Work>
    </rdf:RDF>
  </metadata>
  <g
     inkscape:label="Layer 1"
     inkscape:groupmode="layer"
     id="layer1">
    <path
       id="path3725"
       d="m 44.44801,15.275086 c -0.04029,1.445028 -0.04787,2.890851 -0.05642,4.336358 -0.01355,2.826356 -0.02866,5.652722 -0.03592,8.479101 -0.0024,3.23115 0.0049,6.462273 0.0026,9.693426 0.0049,2.086573 7.94e-4,4.173153 0.0026,6.259729 5.29e-4,0.50955 0.01185,1.019196 0.0019,1.528651 -0.0098,0.503457 -0.04058,1.006285 -0.06088,1.50943 -0.136882,2.797987 -0.414679,5.587719 -0.759701,8.367059 -0.314385,2.030375 -0.618397,4.062624 -0.829018,6.106697 -1.54e-4,0.55481 -0.286843,1.55163 0.07711,2.045237 0.189548,0.257074 0.42563,0.275174 0.714761,0.372176 0.204412,0.03591 0.407387,0.08129 0.613238,0.10772 0.959599,0.1232 1.940174,0.12606 2.905422,0.141941 0.971909,0.01598 1.921065,0.01794 2.894086,0.02299 3.845647,5e-5 7.691313,0.0048 11.536961,0.0011 5.636162,0.0058 11.272271,0.03108 16.90839,0.05197 1.256874,0.02506 2.51409,0.03662 3.770622,0.07515 1.585275,0.0486 6.616555,0.281191 8.164717,0.347062 4.015417,0.170846 8.030601,0.33243 12.045082,0.524721 5.33525,0.274228 10.6743,0.46378 16.01598,0.542266 1.65685,0.02077 3.31676,0.06777 4.96508,-0.141612 0.37664,-0.04784 1.33546,-0.226299 1.72117,-0.296138 1.36968,-0.274397 2.69864,-0.71423 4.04465,-1.082826 0.6599,-0.224287 1.36517,-0.333827 2.01735,-0.581993 0.11678,-0.04444 0.44769,-0.221745 0.33876,-0.160531 -0.46416,0.260832 -0.93669,0.506476 -1.40503,0.759714 0.0709,-0.0887 0.15534,-0.168092 0.2127,-0.266097 0.41009,-0.700746 0.38012,-2.181383 0.40656,-2.971321 0.15757,-2.03101 0.27766,-4.063375 0.34516,-6.099362 0.0289,-1.087779 0.10253,-2.17356 0.15533,-3.260254 0.0194,-0.398455 0.025,-0.797669 0.0532,-1.195592 0.0325,-0.457565 0.22978,-2.34529 0.27358,-2.772542 0.31096,-2.884273 0.39798,-5.784781 0.58711,-8.677971 0.10103,-2.665182 0.52272,-5.299929 0.80833,-7.947744 0.21514,-2.199431 0.40498,-4.399651 0.50877,-6.607297 0.0248,-1.250362 0.11573,-2.503777 0.0234,-3.753428 -0.0466,-0.631166 -0.0949,-0.88532 -0.18542,-1.500808 -0.16649,-0.896391 -0.2528,-1.81939 -0.64367,-2.652435 -0.22778,-0.414915 -0.50889,-0.800526 -0.9155,-1.051717 -0.40075,-0.24586 -0.84008,-0.34915 -1.30056,-0.407467 -0.68587,-0.0597 -1.37539,-0.05263 -2.06322,-0.05725 -1.28269,-0.0062 -2.5654,-0.0076 -3.8481,-0.01239 -1.95957,-0.0039 -3.91914,-0.007 -5.87871,-0.01082 -2.5157,-0.0058 -5.03141,-0.0078 -7.54711,-0.0094 -2.53984,0.0013 -5.07969,0.0022 -7.61953,0.0054 -2.09811,0.0042 -4.196218,0.0077 -6.294332,0.0095 -1.818256,0.0015 -3.636518,0.0042 -5.454777,0.0031 -1.706567,0.0016 -3.413135,6.88e-4 -5.119703,0.0033 -1.438883,0.0033 -2.877764,0.0047 -4.31665,0.0052 -1.490277,0.003 -2.979754,0.06566 -4.469773,0.09389 -1.469621,0.02881 -2.939497,0.03627 -4.409358,0.03804 -1.552821,-1.88e-4 -3.105634,-0.0022 -4.658455,-0.0022 -1.469689,-0.0024 -2.939926,-0.02403 -4.405249,0.102836 -1.187104,0.102649 -2.350477,0.370975 -3.528452,0.539068 -0.956159,0.108182 -1.917126,0.174955 -2.877439,0.236238 -0.968729,0.05133 -1.935488,0.126864 -2.904847,0.168851 -0.867341,0.03195 -1.735323,0.03531 -2.603135,0.03799 -0.668994,0.0031 -1.337985,0.0044 -2.006981,0.0046 -0.54983,0.0013 -1.099661,9.52e-4 -1.649489,-4.24e-4 -0.615286,-0.0021 -1.23058,-6.88e-4 -1.845866,1.2e-5 -0.512471,0.0017 -1.024945,0.0011 -1.537417,0.0023 -0.404222,5.02e-4 -0.808439,0.0017 -1.212659,0.0022 -0.346459,0.0099 -0.694751,-0.02173 -1.038955,0.02292 -0.224253,0.06382 -0.112716,0.03164 -0.334616,0.0965 0,0 1.571376,-1.205037 1.571376,-1.205037 v 0 c 0.230748,-0.05496 0.112789,-0.0318 0.354036,-0.06866 0.349507,-0.01683 0.699527,-0.0075 1.049351,-0.0091 0.402167,5.3e-4 0.804328,0.0017 1.206495,0.0022 0.510399,0.0012 1.020805,5.83e-4 1.531204,0.0022 0.615257,7.15e-4 1.230516,0.0021 1.845771,8.6e-5 0.549714,-0.0012 1.099431,-0.0013 1.64914,8.2e-4 0.664223,0.0011 1.328435,0.0044 1.992656,0.0049 0.864672,-0.0026 1.729555,-0.0072 2.593692,-0.04071 0.968375,-0.0414 1.934305,-0.11834 2.901979,-0.172128 0.954495,-0.06405 1.910593,-0.124903 2.86013,-0.242673 1.172644,-0.176181 2.335826,-0.425852 3.519921,-0.517107 1.464924,-0.108558 2.933393,-0.0831 4.401431,-0.0811 1.555353,6.61e-4 3.110699,1.82e-4 4.666046,-0.0038 1.46648,-0.0044 2.933044,-0.0081 4.39932,-0.03507 1.494853,-0.03317 2.989217,-0.09864 4.484526,-0.09979 1.434113,5.02e-4 2.868224,0.0019 4.302334,0.0052 1.703512,0.0026 3.407029,0.0017 5.110543,0.0033 1.815373,-0.0011 3.63075,0.0017 5.446123,0.0031 2.089369,0.0018 4.178729,0.0053 6.268089,0.0095 2.53486,0.0032 5.06971,0.0041 7.60457,0.0055 2.52432,-0.0016 5.04864,-0.0035 7.57295,-0.0094 1.9705,-0.004 3.941,-0.0072 5.9115,-0.01313 1.29717,-0.0064 2.59434,-0.01153 3.89151,-0.01844 0.6996,-0.0013 1.40224,-0.01155 2.09862,0.06555 0.48166,0.07664 0.94165,0.208798 1.35564,0.476583 0.41541,0.296724 0.72639,0.698851 0.95887,1.152354 0.12232,0.272688 0.17046,0.354007 0.2526,0.653178 0.18615,0.678085 0.2385,1.386736 0.36684,2.075799 0.0882,0.632779 0.13297,0.876487 0.17738,1.525547 0.0861,1.258986 -0.008,2.520371 -0.0369,3.779667 -0.10094,2.216716 -0.30964,4.423924 -0.53116,6.631499 -0.29565,2.648432 -0.72269,5.283962 -0.83107,7.950414 -0.19751,2.894904 -0.28701,5.797034 -0.58712,8.684459 -0.0536,0.56025 -0.21216,2.16309 -0.24889,2.748452 -0.0249,0.397234 -0.0288,0.795517 -0.0453,1.193194 -0.045,1.084696 -0.11247,2.168231 -0.14834,3.253311 -0.0647,2.029777 -0.17593,4.056621 -0.31562,6.082583 -0.008,0.57095 -0.007,0.97859 -0.0393,1.541388 -0.0285,0.497615 -0.0577,1.03632 -0.2608,1.501614 -0.0497,0.113739 -0.12479,0.214556 -0.18718,0.321834 -0.64777,0.392567 -1.28641,0.800632 -1.94333,1.177705 -0.17646,0.101293 -0.56988,0.202211 -0.75402,0.254222 -0.52898,0.149419 -1.05744,0.300763 -1.5884,0.443066 -1.33927,0.369848 -2.66516,0.803302 -4.03409,1.052455 -0.51409,0.08852 -1.19954,0.214264 -1.71486,0.270525 -1.62318,0.177218 -3.25427,0.106294 -4.88196,0.05668 -5.26855,-0.156654 -10.53349,-0.403603 -15.79566,-0.706755 -4.000561,-0.213138 -8.000807,-0.3898 -12.003691,-0.553132 -2.256719,-0.09209 -5.933234,-0.257604 -8.204637,-0.31359 -1.265547,-0.03119 -2.531623,-0.03505 -3.797435,-0.05258 -5.688721,0.02146 -11.377432,0.04597 -17.066169,0.06292 -3.867701,0.0061 -7.735356,0.02931 -11.603019,0.04664 -0.888386,0.0038 -2.039694,0.0113 -2.939114,0.0058 -0.988882,-0.006 -2.000768,0.0095 -2.983658,-0.124299 -0.217649,-0.02963 -0.431356,-0.08323 -0.647036,-0.124841 -0.371671,-0.149637 -0.582287,-0.161247 -0.812832,-0.498411 -0.404828,-0.59205 -0.08477,-1.510792 -0.07135,-2.15832 0.239929,-2.05454 0.557609,-4.09825 0.888722,-6.139879 0.365059,-2.77767 0.648869,-5.568643 0.793832,-8.366966 0.02233,-0.501335 0.0556,-1.002305 0.067,-1.504008 0.01159,-0.510088 0.0016,-1.020437 0.0019,-1.530654 0.0016,-2.087446 -0.0024,-4.174895 0.0026,-6.262338 -0.0024,-3.232039 0.0049,-6.464049 0.0026,-9.696085 -0.0072,-2.814179 -0.02236,-5.628345 -0.03592,-8.4425 -0.0085,-1.42634 -0.01574,-2.853019 -0.05642,-4.278864 0,0 1.766155,-0.899902 1.766155,-0.899902 z"
       inkscape:connector-curvature="0"
       style="stroke-width:0.26458332" />
    <path
       id="path3727"
       d="m 41.741624,36.41898 c -0.967407,-0.148513 -1.943201,-0.218676 -2.91615,-0.319191 -1.290495,-0.144214 -2.588763,-0.185661 -3.885967,-0.21427 -1.486676,-0.02392 -2.973599,-0.02339 -4.460425,-0.02532 -1.645989,-0.0024 -3.291973,0.003 -4.937963,5.3e-4 -1.418912,0.01886 -2.839199,-0.0249 -4.257183,0.0354 -1.33349,0.156657 -2.619697,0.586179 -3.857894,1.091099 -1.281368,0.524304 -2.509169,1.180004 -3.715564,1.857729 -0.814475,0.458161 -2.992289,1.635099 0.785832,-0.473718 0.161829,-0.09033 -0.316602,0.192874 -0.471681,0.294355 -0.405027,0.265041 -0.49471,0.342476 -0.879864,0.632518 -0.908746,0.658442 -1.777761,1.365985 -2.613668,2.114066 -0.8582249,0.762137 -1.7427971,1.491948 -2.5728109,2.285193 -0.8170786,0.803825 -1.5453595,1.690248 -2.2527998,2.590114 -0.7286532,0.938044 -1.4070832,1.910176 -1.990776,2.944728 -0.5947804,1.076579 -1.0473682,2.223807 -1.5142202,3.359581 -0.4919514,1.297668 -1.0741872,2.554013 -1.51573482,3.870672 -0.45767922,1.41931 -1.01813125,2.800564 -1.61148361,4.167611 -0.52722117,1.305163 -0.94606547,2.650635 -1.44438447,3.967427 -0.5059036,1.439542 -0.9053017,2.914877 -1.3419655,4.376835 -0.4853985,1.677977 -0.6144842,3.424672 -0.7581524,5.156951 -0.1139225,1.425237 -0.1441699,2.854804 -0.1580552,4.28388 -0.012475,1.066686 6.35e-4,2.133383 8.202e-4,3.200072 0.00537,0.75425 0.012393,1.508453 0.010459,2.262727 0.00188,0.505301 0.00365,1.0106 0.00523,1.515901 0,0 -2.4916609,1.269574 -2.4916609,1.269574 v 0 c 0.00156,-0.506955 0.00328,-1.013907 0.00477,-1.520862 -0.00265,-0.756952 0.00287,-1.513856 0.00588,-2.270797 -0.00254,-1.070383 0.00539,-2.140807 0.012293,-3.211155 0.023339,-1.440228 0.065532,-2.880974 0.1815727,-4.317143 0.1457486,-1.746652 0.2666452,-3.50779 0.7305688,-5.205923 0.1590482,-0.535146 0.3305889,-1.066591 0.4841679,-1.603333 0.2662907,-0.930653 0.4826825,-1.878658 0.8321405,-2.783657 0.5042157,-1.320737 0.9318313,-2.668709 1.4479643,-3.983958 0.5984293,-1.355072 1.1534662,-2.728646 1.6095987,-4.138917 0.1344593,-0.409599 0.289234,-0.900229 0.446474,-1.301377 0.3395463,-0.866241 0.7779703,-1.693841 1.05687833,-2.584016 0.4641987,-1.14169 0.91561326,-2.293591 1.49038997,-3.385214 0.5783177,-1.048906 1.2461535,-2.035842 1.9779394,-2.984627 0.6999018,-0.913072 1.4304386,-1.803342 2.2360114,-2.626207 0.8242478,-0.798531 1.6957231,-1.540097 2.562987,-2.29118 0.8338582,-0.753893 1.6901176,-1.481386 2.6068176,-2.13409 1.619293,-1.27354 3.464071,-2.20623 5.263561,-3.198833 1.213888,-0.663821 2.43958,-1.318855 3.729662,-1.823725 1.263592,-0.485315 2.565288,-0.924796 3.924442,-1.024192 1.41277,-0.04044 2.826581,-0.0019 4.239773,-0.0108 1.647431,-0.0034 3.294859,-1.03e-4 4.942287,-0.0035 1.492687,-0.0016 2.985537,-0.0065 4.478047,0.02027 1.304456,0.03117 2.609569,0.08154 3.907361,0.224393 0.988174,0.09289 1.97639,0.181507 2.962889,0.290171 0,0 -2.288411,1.624245 -2.288411,1.624245 z"
       inkscape:connector-curvature="0"
       style="stroke-width:0.26458332" />
    <path
       id="path3733"
       d="m -18.068059,74.063841 c 0.982433,1.084799 1.964834,2.164675 2.900794,3.290358 0.861098,1.116613 1.861144,2.116084 2.881448,3.085735 0.801617,0.838009 1.555304,1.726229 2.4352002,2.484509 0.5402795,0.497326 1.208283,0.782431 1.8658269,1.081325 0.6632291,0.335016 1.3200419,0.658561 2.0408132,0.847103 0.2089285,0.04563 0.4847508,0.122984 0.7044936,0.105688 0.2440943,-0.01921 0.5039177,-0.136202 0.7171285,-0.242985 0.1500537,-0.07516 0.587439,-0.324866 0.4409951,-0.242901 -0.6088708,0.340786 -1.2188555,0.679577 -1.828283,1.019366 1.6830495,-1.168615 3.1241698,-2.63366 4.5431149,-4.100399 1.75796903,-1.935171 3.5977336,-3.787555 5.4825666,-5.598194 1.1782285,-1.104419 2.4419959,-2.108039 3.6861638,-3.135059 0,0 2.5355782,-1.021942 2.5355782,-1.021942 v 0 c -1.2615377,1.039632 -2.5625712,2.031116 -3.7624384,3.144525 -1.8910924,1.806017 -3.7443221,3.646747 -5.4949666,5.590968 -1.38911273,1.464572 -2.7991561,2.922847 -4.4308725,4.122471 -0.9623364,0.568732 -1.9177881,1.149276 -2.8870095,1.706192 -0.6427612,0.369334 -1.2932592,0.458954 -1.9982291,0.224546 -0.7259002,-0.2116 -1.3867547,-0.552788 -2.0659879,-0.880435 -0.685328,-0.300842 -1.353158,-0.636135 -1.902118,-1.158341 -0.861038,-0.781238 -1.605558,-1.674701 -2.414921,-2.507845 -1.032142,-0.971486 -2.015352,-2.000202 -2.881131,-3.124449 -0.934812,-1.128297 -1.916802,-2.210773 -2.956683,-3.243773 0,0 2.388517,-1.446463 2.388517,-1.446463 z"
       inkscape:connector-curvature="0"
       style="stroke-width:0.26458332" />
    <path
       id="path3739"
       d="m -46.722029,87.140581 c 0.219141,1.523531 0.344447,3.058186 0.510534,4.587922 0.316775,2.483763 0.74684,4.951016 1.06579,7.434194 0.271248,2.323623 0.636309,4.633943 1.024051,6.940483 0.28162,1.31335 0.303342,2.67361 0.732647,3.95197 0.105775,0.21908 0.160089,0.41054 0.364953,0.55934 0.481907,0.35003 1.701496,0.33374 2.252911,0.3658 3.356708,0.0966 6.715771,0.0781 10.073574,0.0872 6.556213,0.0117 13.112369,0.0399 19.668532,0.0665 10.20186868,0.0363 20.4038165,0.0354 30.605725,0.0529 11.272469,0.0141 22.544938,0.004 33.817405,-0.004 9.959179,-0.0124 19.918352,-0.0251 29.877538,-0.0305 9.063805,-0.004 18.127609,-0.008 27.191419,-0.0139 7.6222,-0.009 15.24439,-0.0243 22.86657,-0.0431 5.64494,-0.002 11.28984,-0.0194 16.93473,-0.0429 2.81901,-0.0306 5.63976,0.0179 8.45638,-0.11791 0.90831,-0.0489 1.78778,-0.19646 2.59755,-0.61856 -4.7802,2.51452 -2.23355,1.58952 -1.80576,0.87722 0.17446,-0.2905 0.19509,-0.63278 0.23575,-0.95943 0.15175,-1.45239 -0.10382,-2.89764 -0.2827,-4.33486 -0.0424,-0.33444 -0.0804,-0.66949 -0.12734,-1.00333 -0.34064,-2.42322 0.0199,0.32416 -0.32444,-2.08167 -0.16183,-1.13064 -0.27942,-2.26848 -0.41483,-3.402467 -0.30787,-1.999851 -0.37605,-4.030705 -0.74327,-6.020866 -0.22268,-0.907249 -0.49567,-1.811052 -0.85875,-2.673059 -0.35658,-0.734177 -0.88254,-1.366557 -1.34598,-2.033739 -0.60641,-0.91817 -1.28827,-1.767027 -2.07878,-2.531991 -1.06308,-1.01438 -2.46062,-1.364369 -3.85366,-1.671425 -2.28656,-0.393298 -4.6159,-0.407123 -6.92917,-0.445831 -3.46678,-0.09595 -6.91486,0.362331 -10.3579,0.698338 -0.64269,0.07763 -1.28594,0.150773 -1.92807,0.2329 -2.13518,0.273079 -4.26607,0.566462 -6.40957,0.771472 -0.94258,0.09015 -4.09268,0.335481 -4.98437,0.406082 -0.93571,0.08216 -1.87243,0.153438 -2.80711,0.246462 -3.14957,0.313468 -6.28923,0.701112 -9.44524,0.953379 -2.81586,0.225078 -3.97989,0.266562 -6.81118,0.415155 -7.284357,0.307634 -14.577155,0.32344 -21.866772,0.34581 -7.621958,-0.0026 -15.243913,-0.0058 -22.865871,-0.0058 -6.972853,0.0054 -13.945708,0.0032 -20.918559,0.01206 -5.808641,0.0054 -11.61726,0.01606 -17.425881,0.03107 -4.566506,0.0098 -9.1330229,0.0092 -13.6995309,0.01699 -3.85282016,-0.0011 -7.7056291,0.01045 -11.5584418,0.01617 -2.8851723,0.0073 -5.7703653,0.0087 -8.6555183,0.02204 -1.962162,0.0072 -3.924337,0.01 -5.886508,0.01296 -1.511765,0.0024 -3.023517,0.0072 -4.535282,0.0068 -1.190887,0.0059 -2.381795,0.0033 -3.572682,0.007 -1.086678,-0.0016 -2.173343,-7.94e-4 -3.260019,0.0013 -0.87281,2.64e-4 -1.745615,0.0038 -2.618425,0.0051 -0.845286,6.9e-5 -1.690566,-0.0029 -2.535854,-0.003 -0.80859,0.0024 -1.61717,0.0028 -2.425763,0.0024 -0.697392,0.0019 -1.394783,0.003 -2.092177,0.0026 -0.588759,-5.29e-4 -1.177512,0.0033 -1.766269,0.003 -0.532119,7.94e-4 -1.06422,-0.0011 -1.596342,1.64e-4 -0.502438,-1.8e-5 -1.004877,5.3e-4 -1.507318,5.3e-4 -0.07935,1.03e-4 -0.158694,2.06e-4 -0.238043,2.64e-4 0,0 2.26658,-1.646766 2.26658,-1.646766 v 0 c 0.07906,1.03e-4 0.158125,2.06e-4 0.237185,2.64e-4 0.501878,1.46e-4 1.003753,5.29e-4 1.505628,5.29e-4 0.531971,0.0013 1.063924,-5.29e-4 1.595892,1.62e-4 0.585957,-2.44e-4 1.171911,0.0035 1.757871,0.003 0.695055,-5.29e-4 1.390105,7.94e-4 2.085157,0.0026 0.806503,-5.29e-4 1.612998,-1.85e-4 2.419501,0.0024 0.848061,-8.5e-5 1.696119,-0.0031 2.54418,-0.003 0.868148,0.0013 1.736294,0.0047 2.604445,0.0051 1.085403,0.0021 2.1708,0.003 3.256206,0.0013 1.18451,0.0036 2.369043,0.0011 3.553554,0.007 1.505542,-5.29e-4 3.011067,0.0043 4.516607,0.0068 1.950272,0.003 3.900548,0.0057 5.850812,0.01297 2.864927,0.01339 5.7298957,0.01474 8.5948427,0.02204 3.8379952,0.0057 7.6759869,0.0172 11.5139897,0.01614 4.5509888,0.0078 9.1019866,0.0071 13.6529726,0.01683 5.779832,0.01498 11.559662,0.02553 17.339514,0.03171 6.956502,0.01016 13.913006,0.01021 20.869503,0.02371 7.623997,0.0089 15.248024,0.0245 22.872009,2.65e-4 7.296105,-0.02209 14.595374,-0.03878 21.885367,-0.374052 3.36621,-0.184798 6.72191,-0.402452 10.07714,-0.737314 6.96557,-0.695188 -0.41,7.93e-4 6.24318,-0.689266 0.94392,-0.09788 1.88976,-0.176149 2.83465,-0.264224 1.18787,-0.100587 3.79848,-0.316333 5.01801,-0.43974 2.15452,-0.218022 4.29597,-0.523142 6.44309,-0.799719 0.64576,-0.08319 1.29279,-0.156221 1.93918,-0.234328 3.46404,-0.349372 6.93443,-0.792157 10.42315,-0.709748 2.3467,0.0265 4.71034,0.02453 7.02794,0.443236 1.44466,0.326839 2.872,0.717155 3.96826,1.776663 0.79908,0.780942 1.49251,1.645246 2.12543,2.56584 0.47457,0.68249 1.0153,1.328316 1.38011,2.079461 0.3808,0.880845 0.62245,1.822852 0.84307,2.754148 0.3298,2.008341 0.38414,4.048847 0.69817,6.060612 0.2647,2.162189 0.55419,4.319159 0.89356,6.470799 0.19374,1.444 0.47795,2.89174 0.37812,4.35531 -0.0246,0.351 -0.0327,0.73787 -0.15817,1.07301 -0.421,1.12435 -2.61814,1.31666 -2.94085,1.98346 -0.83079,0.35237 -1.71023,0.46641 -2.61005,0.48851 -2.76525,0.0756 -5.53164,-0.0247 -8.29745,-0.0103 -5.60553,-0.0236 -11.21109,-0.041 -16.81668,-0.0429 -7.58263,-0.0189 -15.16527,-0.0336 -22.74793,-0.0431 -9.051012,-0.006 -18.102029,-0.01 -27.153047,-0.0139 -9.931212,-0.005 -19.862411,-0.018 -29.793617,-0.0305 -11.268538,-0.008 -22.537079,-0.0184 -33.80562,-0.004 -10.2517068,0.0175 -20.503458,0.0163 -30.755115,0.0557 -6.629979,0.0296 -13.259955,0.0608 -19.889912,0.0948 -3.414421,0.0206 -6.829766,0.0674 -10.243952,0.0171 -0.73162,-0.0403 -1.834859,0.007 -2.435659,-0.51294 -0.229674,-0.19878 -0.281334,-0.39274 -0.403095,-0.66049 -0.137517,-0.42541 -0.188259,-0.53588 -0.269148,-0.9927 -0.177855,-1.00445 -0.202078,-2.03461 -0.413101,-3.03479 -0.369994,-2.31603 -0.729052,-4.63432 -0.998755,-6.96453 -0.315428,-2.481451 -0.742103,-4.947035 -1.09143,-7.423921 -0.188701,-1.503378 -0.3155,-3.017065 -0.605446,-4.505793 0,0 2.471468,-1.328129 2.471468,-1.328129 z"
       inkscape:connector-curvature="0"
       style="stroke-width:0.26458332" />
    <path
       id="path3743"
       d="m -7.2096137,111.08201 c 0.8659659,1.60567 1.6030069,3.27509 2.4550341,4.88909 1.0338876,1.87542 1.9260909,3.82442 2.9848172,5.68516 1.05600143,1.78106 2.14154579,3.54755 3.3215718,5.24953 0.8159311,1.11484 1.6870398,2.19705 2.7253984,3.11489 0.2921318,0.25822 1.4511983,1.16933 1.7416618,1.3994 2.6498426,1.88263 5.7643844,2.86785 8.8504904,3.76957 3.357073,0.87395 6.762878,1.55091 10.206059,1.97784 2.268332,0.28126 3.097319,0.31746 5.378323,0.4917 4.82632,0.27446 9.650587,0.56216 14.482824,0.70934 2.643301,0.14838 5.177147,0.0621 7.79935,-0.25331 0,0 -3.086796,2.29452 -3.086796,2.29452 v 0 c -2.583275,0.25448 -5.127852,0.28855 -7.722005,0.12991 -4.813466,-0.17619 -9.618871,-0.4834 -14.42675,-0.76949 -2.368703,-0.18707 -3.037291,-0.21121 -5.391196,-0.51112 -3.472959,-0.4425 -6.908067,-1.13143 -10.305797,-1.97093 -3.1549669,-0.90087 -6.3407676,-1.88958 -9.0419708,-3.81896 -0.5043199,-0.39671 -1.2837184,-0.997 -1.76657526,-1.42673 -1.05590738,-0.93973 -1.94817775,-2.03387 -2.77487554,-3.17627 -1.1850127,-1.71203 -2.2790532,-3.48613 -3.3277027,-5.2845 -1.0689905,-1.85958 -1.9617632,-3.81363 -3.0012338,-5.69064 -0.8504442,-1.60848 -1.5696711,-3.29069 -2.5360279,-4.83312 0,0 3.4354003,-1.97588 3.4354003,-1.97588 z"
       inkscape:connector-curvature="0"
       style="stroke-width:0.26458332" />
    <path
       id="path3753"
       d="m 42.587148,128.8581 c 1.313222,1.13116 2.602367,2.28979 3.915322,3.4213 1.437098,1.29212 2.930517,2.51021 4.467389,3.68036 0.700971,0.64835 2.176555,1.28969 2.505054,2.23802 0.04248,0.12265 0.02744,0.25815 0.04116,0.38722 -0.04725,0.11955 -0.06447,0.25593 -0.14175,0.35866 -0.37778,0.5022 -1.999406,1.37978 -2.561958,1.70316 -1.392484,0.80047 -2.789431,1.59314 -4.184145,2.38971 0.808549,-0.46455 3.248835,-1.83174 2.425645,-1.39366 -1.434362,0.76334 -2.830394,1.59697 -4.259712,2.36971 -0.423768,0.22911 -1.474981,0.67455 -1.915182,0.87848 -0.538318,0.2494 -1.184023,0.57498 -1.717918,0.84059 -0.787114,0.41641 -1.548273,0.87919 -2.324997,1.31405 -0.218636,0.12241 -0.877287,0.48457 -0.660342,0.35919 3.376906,-1.95157 3.599067,-2.10414 2.260923,-1.2547 -0.563285,0.3665 -1.104892,0.76508 -1.635016,1.17765 0,0 -3.661008,1.47229 -3.661008,1.47229 v 0 c 0.52161,-0.44127 1.079423,-0.83719 1.640491,-1.22691 2.390034,-1.5516 4.918794,-2.88713 7.412137,-4.26406 0.880523,-0.42934 1.770177,-0.83409 2.657719,-1.24829 0.321249,-0.14992 1.251064,-0.66066 0.959114,-0.45956 -0.889751,0.61289 -8.174807,4.78216 1.831023,-0.99449 -5.297001,3.10218 -0.89698,0.53538 0.328141,-0.24284 0.02614,-0.0667 0.08968,-0.12926 0.07843,-0.19997 -0.116904,-0.73427 -1.857013,-1.63417 -2.367516,-2.12886 -1.529191,-1.18528 -3.012067,-2.42341 -4.454856,-3.71298 -1.320159,-1.12798 -2.612879,-2.29197 -3.987045,-3.35414 0,0 3.3489,-2.10993 3.3489,-2.10993 z"
       inkscape:connector-curvature="0"
       style="stroke-width:0.26458332" />
    <path
       id="path3787"
       d="m 55.319485,124.55479 c -0.05702,2.067 0.294854,3.67075 0.283124,5.73842 -0.02103,3.49723 -0.02286,6.99454 -0.02777,10.49182 0.0011,4.23655 -0.07343,8.47261 0.07549,12.70726 0.221697,2.80679 0.382408,5.62451 0.842764,8.40549 0.290632,1.75569 0.379693,2.00554 0.784154,3.72002 0.708601,2.80892 1.454883,5.60785 2.25707,8.39139 0.236019,0.7536 0.46554,1.50896 0.693444,2.26498 0.08646,0.28681 0.144103,0.6054 0.367832,0.83024 0.09774,0.0982 0.232695,0.15052 0.349043,0.22579 0.185769,0.0525 0.367991,0.11966 0.557303,0.15738 1.009332,0.2011 2.071042,0.20883 3.094667,0.23736 1.073269,0.0299 2.036577,0.0341 3.11554,0.0449 4.984083,0.0252 9.968275,0.0354 14.952414,0.029 3.780004,0.0592 7.555481,-0.10608 11.327955,-0.31986 0.896837,-0.0508 1.794571,-0.0883 2.690363,-0.15499 0.847807,-0.0632 1.693103,-0.1564 2.539653,-0.23461 3.189889,-0.31986 6.365639,-0.76923 9.553189,-1.1084 1.75785,-0.18705 2.5399,-0.23608 4.28802,-0.37259 3.66646,-0.25794 7.34216,-0.29898 11.01588,-0.33485 2.78741,-0.0112 5.57484,-0.014 8.36227,-0.0135 2.15528,0.004 4.31055,-0.003 6.46582,-0.009 1.40426,-0.006 2.80854,-0.0109 4.21281,-0.011 1.25872,0.001 2.51745,2e-4 3.77617,-0.002 1.008,-0.001 2.01601,-0.006 3.02402,-0.006 0.83449,-0.0325 1.63404,0.25281 2.44598,0.40698 0.66425,0.11561 1.33907,0.14053 2.01176,0.15295 0.9254,-0.11446 2.51841,-0.85918 -1.7162,1.09326 -0.11252,0.0519 0.1696,-0.18305 0.23341,-0.28925 0.20463,-0.34057 0.30246,-0.71425 0.42747,-1.08766 0.67123,-2.61149 0.81559,-5.32858 1.03171,-8.00674 0.34144,-4.72631 0.39025,-9.46675 0.43233,-14.20313 0.0238,-4.40683 0.0121,-8.81376 -0.009,-13.22058 0.058,-2.99382 0.29796,-5.97901 0.49388,-8.96566 0.0524,-1.503 0.26797,-2.9926 0.42901,-4.48606 0.0511,-0.60584 0.13957,-1.21507 0.0401,-1.81912 -0.13525,-0.56077 -0.57333,-0.92219 -1.02302,-1.24296 -0.98225,-0.6294 -2.14696,-0.88428 -3.27226,-1.13006 -0.25746,-0.0422 -0.51543,-0.0813 -0.77236,-0.12663 -0.77345,-0.13631 -0.80584,-0.16809 -1.5942,-0.28029 -0.97213,-0.13836 -1.94786,-0.20414 -2.92706,-0.26621 -2.38474,-0.11467 -4.77312,-0.11637 -7.16006,-0.12627 -2.81232,-0.008 -5.62463,-0.002 -8.43695,0.003 -2.32667,0.003 -4.65333,0.0143 -6.98001,0.0127 -2.38784,-0.003 -4.77568,-0.005 -7.16353,-0.008 -2.4377,-0.004 -4.8754,0.003 -7.31309,0.008 -1.97915,-0.002 -3.95829,0.008 -5.93743,0.007 -2.23402,-0.14605 -4.4688,-0.26032 -6.706654,-0.32618 -2.388627,-0.0571 -4.778034,-0.0613 -7.167205,-0.0624 -2.181858,-0.007 -4.359312,0.17628 -6.537606,0.28587 -1.535176,0.0733 -3.07196,0.0995 -4.608626,0.11457 -1.1176,0.022 -2.236282,-0.0253 -3.3528,0.0327 -0.984943,0.0755 -1.971553,0.11961 -2.958954,0.14418 -0.935332,0.0195 -1.870943,0.0198 -2.806438,0.0197 -0.95966,7.9e-4 -1.919322,-7.9e-4 -2.878982,-0.002 -1.060617,0.004 -2.119109,0.0935 -3.178529,0.1415 -0.79555,0.0566 -1.622984,0.0558 -2.398197,0.25975 -0.596908,0.1959 -1.218269,0.27951 -1.841593,0.33163 -0.50325,0.10479 -1.012772,0.16528 -1.525092,0.20108 -0.477891,0.0228 -0.956363,0.023 -1.434664,0.0235 -0.469005,5.3e-4 -0.938008,-10e-4 -1.407017,-10e-4 -0.211688,-0.0187 -0.398946,0.0152 -0.587393,0.11006 -0.04667,0.0235 -0.181584,0.10352 -0.136173,0.0777 2.334223,-1.32901 3.014559,-1.83117 2.208003,-1.24224 -0.202221,0.36459 -0.292997,0.79775 -0.38667,1.20327 -0.101878,0.5218 -0.15327,1.05441 -0.137115,1.58579 l -2.484112,1.28328 v 0 c -0.04396,-0.55278 0.01855,-1.10554 0.10241,-1.65258 0.08911,-0.44015 0.22113,-0.86758 0.319071,-1.30484 0.510715,-1.13601 2.141329,-1.70653 3.369943,-1.7078 0.468251,0.001 0.936503,0.002 1.404754,0.001 0.474494,-0.002 0.949648,-0.005 1.422985,-0.0416 0.508283,-0.0456 1.010124,-0.13072 1.515489,-0.19925 0.616286,-0.0657 1.220255,-0.18821 1.817504,-0.35451 0.793772,-0.13529 1.602666,-0.17551 2.40623,-0.20795 1.061863,-0.048 2.122969,-0.13639 3.186337,-0.13161 0.960898,-10e-4 1.921793,-10e-4 2.882691,-7.9e-4 0.933887,-0.002 1.867876,-0.003 2.801551,-0.0251 0.984525,-0.0286 1.967585,-0.0813 2.950559,-0.14308 1.115428,-0.0352 2.231877,-0.006 3.347736,-0.0172 1.521164,-0.006 3.042476,-0.027 4.562332,-0.0944 2.1756,-0.098 4.349771,-0.27956 6.528597,-0.26277 2.386158,0.008 4.772636,0.0169 7.158148,0.0777 2.24839,0.0623 4.49333,0.18468 6.73972,0.29277 1.97269,-10e-4 3.94538,0.009 5.91807,0.007 2.43004,0.005 4.86008,0.0119 7.29013,0.008 l 7.18703,-0.009 c 2.31687,-0.002 4.63373,0.008 6.9506,0.009 2.81232,0.002 5.62461,0.001 8.43692,-0.002 2.40125,0.001 4.80409,-0.006 7.20303,0.11532 1.79946,0.11383 3.58517,0.31396 5.35204,0.68332 1.16674,0.26259 2.36864,0.52593 3.38138,1.19381 0.50251,0.3732 0.975,0.79158 1.13837,1.42085 0.12801,0.63452 0.0524,1.26762 -0.0276,1.90588 -0.1871,1.50472 -0.4566,3.0013 -0.52201,4.519 -0.23356,2.99628 -0.50831,5.99089 -0.5965,8.99636 -0.0174,4.419 -0.0225,8.83807 -0.0572,13.25699 -0.0418,4.72831 -0.084,9.45945 -0.35248,14.18147 -0.17263,2.5104 -0.0776,1.21627 -0.26417,3.60199 -0.11497,1.47006 -0.22639,2.94707 -0.58626,4.38265 -0.0493,0.17569 -0.37362,1.39105 -0.5457,1.50791 -1.40763,0.95589 -1.86585,1.57109 -3.14453,1.58387 -0.67898,-0.0262 -1.35986,-0.066 -2.02774,-0.19911 -0.79529,-0.16584 -1.58347,-0.41626 -2.40585,-0.36852 -1.00272,-7e-5 -2.00543,-0.004 -3.00814,-0.006 -1.25744,-0.002 -2.51487,-0.003 -3.7723,-0.001 -1.39394,-1e-4 -2.78788,-0.005 -4.1818,-0.0116 -2.14295,-0.007 -4.28588,-0.0162 -6.42883,-0.0187 -2.77282,-0.008 -5.54563,-0.026 -8.31845,-0.0157 -3.65174,0.0123 -7.30569,0.0614 -10.95027,0.30931 -4.61008,0.35284 -9.19376,0.94747 -13.789535,1.44638 -5.495745,0.46962 -11.013948,0.70912 -16.530486,0.66269 -5.03037,0.006 -10.060583,0.0436 -15.090873,0.0696 -1.476494,-2.7e-4 -2.955914,0.016 -4.431316,-0.0559 -0.565377,-0.0276 -1.37497,-0.0713 -1.947023,-0.20718 -0.213979,-0.0508 -0.415129,-0.14545 -0.622692,-0.21817 -0.136633,-0.10627 -0.294468,-0.18983 -0.409898,-0.31882 -0.248912,-0.27815 -0.288898,-0.56333 -0.381807,-0.91031 -0.205517,-0.76756 -0.406926,-1.53618 -0.629896,-2.29902 -0.754009,-2.80864 -1.502595,-5.61904 -2.173084,-8.44916 -0.422666,-1.81463 -0.472397,-1.89071 -0.774295,-3.7503 -0.453623,-2.79416 -0.612068,-5.62273 -0.833202,-8.44183 -0.142346,-4.22969 -0.111522,-8.4614 -0.122555,-12.69304 -0.0049,-3.48784 -0.0067,-6.97571 -0.02778,-10.46351 -0.01167,-2.0432 -0.361845,-3.60801 -0.419355,-5.65052 z"
       inkscape:connector-curvature="0"
       style="stroke-width:0.26458332"
       sodipodi:nodetypes="ccccsccccccccccccccccccccccccccccccccccccccccccccccccccccccccccccccccccccccccccccccccccccccccccccccccccccccccccccccccccccscccccc" />
    <path
       id="path3808"
       d="m 76.953847,38.186553 c -0.03187,1.229206 -0.03441,2.459048 -0.04211,3.688598 -0.01064,1.907043 -0.0099,3.814128 -0.0033,5.721183 -0.004,1.055844 -0.0089,2.116167 0.163049,3.161276 0.08066,0.490302 0.163039,0.79062 0.27963,1.269715 0.213675,0.798232 0.42073,1.598657 0.722561,2.368735 0.156105,0.315849 0.309846,0.631412 0.445019,0.957233 0.183536,0.454565 0.68444,0.594948 1.115303,0.715328 1.272559,0.240604 2.577016,0.235572 3.867465,0.257529 1.739027,0.01918 3.478197,0.01273 5.217274,0.0065 1.454309,0.0269 2.896227,-0.202724 4.340624,-0.338993 1.167199,-0.09965 2.333599,-0.203956 3.503883,-0.26004 0.631986,7.94e-4 1.257961,-0.08127 1.886847,-0.127611 0.393038,-0.03055 0.787069,-0.0397 1.1811,-0.04458 0.625358,-0.188822 0.711318,-0.22575 -1.301451,0.746509 -0.05791,0.02797 0.09064,-0.09345 0.121467,-0.149892 0.226491,-0.414663 0.289976,-0.907002 0.376277,-1.362284 0.235069,-1.71931 0.245838,-3.459485 0.267679,-5.191723 0.01114,-1.68952 0.0061,-3.379081 0.0043,-5.06862 -0.005,-1.335979 -0.01156,-2.671953 -0.02141,-4.007906 0.01487,-0.674491 -0.01942,-1.344149 -0.120864,-2.01051 -0.06894,-0.434192 -0.187603,-0.693425 -0.585579,-0.890852 -0.527989,-0.160843 -1.089998,-0.147931 -1.636582,-0.158292 -0.936691,-0.01056 -1.873462,-0.0065 -2.810188,-0.0058 -1.093186,0.0021 -2.186379,-0.0013 -3.279563,0.0013 -1.080783,0.0027 -2.161556,5.3e-5 -3.242339,-5.3e-4 -0.810162,0.03687 -1.623076,0.03123 -2.432934,0.07369 -0.479284,0.02514 -0.746651,0.06365 -1.222115,0.118764 -1.10454,0.155641 -2.216894,0.236852 -3.331006,0.276328 -1.075257,0.03545 -2.150827,-1.51e-4 -3.223779,0.08652 -0.734433,0.05463 -1.453983,0.200827 -2.167895,0.373497 -0.42281,0.08253 -0.824196,0.24194 -1.238555,0.355147 -0.898765,0.375947 1.901865,-1.203896 1.233874,-0.707358 0,0 -1.692751,0.719497 -1.692751,0.719497 v 0 c 0.368128,-0.656566 1.203103,-0.913177 1.908805,-1.128487 0.407125,-0.121465 0.810934,-0.256088 1.228923,-0.33737 0.711975,-0.165487 1.433026,-0.288798 2.163696,-0.33401 1.073018,-0.06632 2.14797,-0.03934 3.222107,-0.07811 1.109006,-0.04658 2.215539,-0.131639 3.315933,-0.280964 1.219933,-0.128603 2.445678,-0.149416 3.671384,-0.180229 1.081535,-7.94e-4 2.163064,-0.0033 3.244599,-0.0011 1.094407,0.0019 2.188811,-0.0024 3.283215,-0.0044 0.943131,-0.0029 1.886299,-0.0087 2.829422,-0.0036 0.572447,0.01061 1.168924,-0.0061 1.70707,0.217197 0.419468,0.254066 0.585908,0.553577 0.661438,1.039381 0.10382,0.680704 0.12943,1.363755 0.0991,2.052357 -0.009,1.342101 -0.0131,2.684227 -0.015,4.026352 0.002,1.692032 0.005,3.384135 -0.0138,5.07609 -0.0218,1.733179 -0.0394,3.47064 -0.21575,5.1964 -0.21001,1.383946 -0.32434,2.437268 -2.267407,2.620894 -0.388692,0.0051 -0.777367,0.01741 -1.165019,0.04765 -0.620191,0.05178 -1.239949,0.09982 -1.86287,0.103048 -1.160622,0.05482 -2.318089,0.150561 -3.475665,0.249782 -1.44304,0.140301 -2.885289,0.353917 -4.338921,0.317262 -1.737881,-0.0024 -3.475794,-1.14e-4 -5.21364,-0.01246 -1.317065,-0.01572 -2.65075,0.0019 -3.947555,-0.259384 -0.48405,-0.146693 -1.021794,-0.328544 -1.228735,-0.837298 -0.131853,-0.329443 -0.28724,-0.646486 -0.435819,-0.96815 -0.283919,-0.788731 -0.469921,-1.604799 -0.685488,-2.414188 -0.110482,-0.463534 -0.203748,-0.817854 -0.279702,-1.291087 -0.169537,-1.056323 -0.155665,-2.127679 -0.148812,-3.193931 0.0066,-1.905942 0.0074,-3.811916 -0.0033,-5.717847 -0.0076,-1.215245 -0.01,-2.430799 -0.0421,-3.645691 0,0 1.629884,-0.830466 1.629884,-0.830466 z"
       inkscape:connector-curvature="0"
       style="stroke-width:0.26458332" />
    <path
       id="path3941"
       d="m 70.833201,37.514926 c -0.423375,0.239864 -0.838017,0.495848 -1.270132,0.719588 -0.140626,0.07281 0.263946,-0.175107 0.39375,-0.265814 0.6495,-0.453877 1.264748,-0.952524 1.886485,-1.442982 1.106739,-0.902282 2.143971,-1.885495 3.195725,-2.850237 1.397407,-1.319236 2.761226,-2.673017 4.158167,-3.993232 1.328947,-1.223782 2.553597,-2.551993 3.828828,-3.829556 0.611672,-0.598094 1.207849,-1.212891 1.73936,-1.883943 0.243848,-0.272632 0.449302,-0.581756 0.70739,-0.841892 0.05131,-0.05171 0.100156,-0.109145 0.163672,-0.144817 0.577294,-0.324224 1.169331,-0.621466 1.753999,-0.932199 0.0755,0.0233 0.154467,0.03744 0.226502,0.06991 0.348843,0.157232 0.648189,0.438116 0.94519,0.671955 0.437118,0.344162 0.385172,0.305085 0.841578,0.676288 1.236732,1.039087 2.584498,1.930735 3.856966,2.922654 1.362726,1.042619 2.745809,2.059667 4.080595,3.138096 1.148353,0.905179 2.267532,1.846109 3.460674,2.69237 0.89493,0.644176 1.80848,1.259171 2.78259,1.776971 0.53936,0.279823 1.05965,0.597863 1.55768,0.945822 0.48687,0.374785 0.97371,0.750443 1.44456,1.145302 0.53633,0.393184 1.06403,0.799724 1.61868,1.167204 0.22943,0.163933 0.46546,0.317968 0.70275,0.470146 0,0 -1.52718,0.980914 -1.52718,0.980914 v 0 c -0.23697,-0.154311 -0.47251,-0.310664 -0.70333,-0.474131 -0.5519,-0.379696 -1.08376,-0.788773 -1.62361,-1.185101 -0.47235,-0.386812 -0.95248,-0.764399 -1.4435,-1.127291 -0.49431,-0.33804 -1.00188,-0.657421 -1.52934,-0.941565 -0.96242,-0.540123 -1.86988,-1.16641 -2.761346,-1.816156 -1.187831,-0.856059 -2.313434,-1.791583 -3.454249,-2.708611 -1.332563,-1.076846 -2.702944,-2.106242 -4.067405,-3.142112 -1.283959,-0.986922 -2.633406,-1.885048 -3.895635,-2.901265 -0.30009,-0.234444 -0.554133,-0.434918 -0.855451,-0.663147 -0.27486,-0.208187 -0.581231,-0.49328 -0.926142,-0.583333 -0.0598,-0.01561 -0.123513,-0.0049 -0.185269,-0.0074 0.464984,-0.283452 0.929968,-0.566903 1.394949,-0.850354 -0.06048,0.03914 -0.126436,0.07091 -0.181448,0.117422 -0.279181,0.236048 -0.457941,0.573918 -0.716537,0.829561 -0.53562,0.6965 -1.157314,1.319347 -1.788118,1.929251 -0.589134,0.575801 -1.154173,1.172682 -1.731393,1.760332 -0.8161,0.83085 -0.530776,0.536614 -1.38579,1.360992 -0.251296,0.24229 -0.501253,0.485966 -0.751882,0.728949 -0.735182,0.697185 -1.47275,1.391512 -2.194677,2.102495 -0.440745,0.434065 -0.870042,0.87978 -1.315772,1.308719 -0.20187,0.194265 -0.410763,0.381098 -0.616144,0.571649 -1.043855,0.964819 -2.073955,1.946542 -3.16906,2.853809 -1.297982,1.024739 -2.560963,2.070795 -4.070217,2.791772 0,0 1.423537,-1.147054 1.423537,-1.147054 z"
       inkscape:connector-curvature="0"
       style="stroke-width:0.26458332" />
    <path
       id="path3954"
       d="m 91.002195,145.76831 c -0.02761,1.21888 -0.04139,2.43843 -0.01738,3.6574 0.120629,1.63705 0.376656,3.2601 0.566759,4.89008 0.177953,1.75951 0.443159,3.50851 0.622329,5.26774 0.147511,1.24474 0.282107,2.48977 0.348565,3.74166 0.0367,0.80568 0.04372,1.61228 0.04839,2.41866 -0.0195,0.84113 0.243252,0.9011 0.977977,1.16604 1.422654,0.35284 2.891636,0.41585 4.349413,0.47658 1.998597,0.0661 3.998602,0.0593 5.998002,0.06 1.88557,-0.002 3.77116,1.3e-4 5.65672,-0.008 1.28885,-0.0104 2.57776,-0.0103 3.86665,-0.0143 0.79262,-0.0252 1.58059,-0.12062 2.37233,-0.15898 0.60623,-0.079 1.20835,-0.18037 1.8143,-0.26169 0.71042,-0.0462 1.41335,-0.15852 2.12197,-0.2234 0.24738,-0.0375 0.40161,-0.0505 0.63974,-0.12675 0.0892,-0.0285 0.34109,-0.15288 0.2602,-0.10573 -3.75846,2.19063 -2.21372,1.51313 -1.71504,0.81155 0.032,-0.0993 0.0737,-0.19601 0.0959,-0.29795 0.045,-0.20645 0.10609,-0.81245 0.12228,-0.98856 0.0688,-0.7488 0.1004,-1.49879 0.13151,-2.24985 0.0677,-1.9684 0.0656,-3.93825 0.0693,-5.90754 0.004,-1.95374 0.003,-3.90745 -0.007,-5.86116 0.009,-1.18533 -0.0117,-2.36805 -0.10503,-3.54972 -0.0315,-0.63585 -0.189,-1.25536 -0.33918,-1.87134 -0.1453,-0.49591 -0.22531,-1.00474 -0.2714,-1.51832 -0.0276,-0.38853 -0.13616,-0.72057 -0.3858,-1.01824 -0.42324,-0.28475 -0.93759,-0.29833 -1.42966,-0.32657 -1.02307,-0.035 -2.04702,-0.0289 -3.07053,-0.0285 -1.42373,0.002 -2.84747,-0.002 -4.2712,-0.004 -1.7027,-0.006 -3.4054,0.001 -5.10811,0.001 -1.50557,0.002 -3.01115,0.003 -4.516727,0.004 -1.31168,0.004 -2.62336,0.002 -3.935042,0.005 -1.083596,0.004 -2.167208,0.001 -3.250803,0.005 -0.867622,0.003 -1.735254,0.003 -2.602881,0.002 -0.749118,5.3e-4 -1.49824,0.002 -2.247355,0.005 0,0 2.085046,-1.51488 2.085046,-1.51488 v 0 c 0.744993,0.003 1.489993,0.004 2.234991,0.005 0.865346,-7.9e-4 1.730701,-5.3e-4 2.596044,0.002 1.078987,0.004 2.157992,0.001 3.236984,0.005 1.307486,0.003 2.614983,0.001 3.922463,0.005 1.50231,7.9e-4 3.00462,0.001 4.50693,0.004 1.70219,2e-5 3.40439,0.007 5.10659,-2.1e-4 1.43189,-0.004 2.86378,-0.0103 4.29569,-0.0139 1.03702,-0.003 2.07491,-0.0184 3.11136,0.0208 0.55961,0.0436 1.12449,0.10298 1.56235,0.49211 0.27474,0.34279 0.42126,0.71733 0.45904,1.15768 0.0339,0.50258 0.10181,1.00113 0.24084,1.48673 0.15714,0.62967 0.32354,1.26598 0.3464,1.91735 0.075,1.19808 0.0815,2.395 0.0551,3.59537 -0.008,1.95626 -0.007,3.9125 -0.007,5.86877 -0.004,1.9681 -0.01,3.93634 -0.0446,5.90418 -0.0336,1.20182 -0.0558,2.41251 -0.22739,3.60358 -0.51204,1.3385 -2.27048,1.84261 -3.61289,2.01765 -0.70547,0.073 -1.40921,0.16237 -2.11506,0.23135 -0.60972,0.0875 -1.21672,0.19984 -1.83147,0.24765 -0.7839,0.0475 -1.56708,0.11324 -2.35261,0.1273 -1.27677,-0.004 -2.55357,-0.003 -3.83033,-0.0119 -1.8821,-0.005 -3.76422,10e-4 -5.64633,-2.6e-4 -2.002793,-0.003 -4.005932,-0.009 -6.008053,-0.0654 -1.492697,-0.0636 -3.003714,-0.11287 -4.455049,-0.50218 -0.765738,-0.30607 -1.181748,-0.52598 -1.143886,-1.42786 0.0037,-0.80618 0.0053,-1.61259 -0.02262,-2.41842 -0.05211,-1.25424 -0.159975,-2.50442 -0.300545,-3.75188 -0.169812,-1.75933 -0.427575,-3.50784 -0.618181,-5.26488 -0.192712,-1.63588 -0.453474,-3.26383 -0.584303,-4.90655 -0.0393,-1.20836 -0.02823,-2.41716 -0.05921,-3.62572 0,0 2.310207,-1.17711 2.310207,-1.17711 z"
       inkscape:connector-curvature="0"
       style="stroke-width:0.26458332" />
    <path
       id="path4051"
       d="m 79.248163,56.538687 c -0.0226,-0.391334 -0.03286,-0.783158 -0.04011,-1.175033 -0.0081,-0.490408 -0.0088,-0.980426 0.01066,-1.470511 0.02816,-0.478296 0.07736,-0.95489 0.117168,-1.432248 0.0527,-0.439074 0.134073,-0.873623 0.184187,-1.313027 0.03242,-0.300429 0.03998,-0.602467 0.04489,-0.904316 0.0024,-0.235212 0.0011,-0.470438 0.0011,-0.705657 8.2e-5,-0.255601 -6e-6,-0.511197 -5.3e-4,-0.766795 -1.56e-4,-0.224528 -0.0011,-0.449051 -0.0013,-0.673576 -2.64e-4,-0.07234 -0.0077,-0.130389 0.02267,-0.199837 0.01508,-0.03452 0.03088,-0.07408 0.06293,-0.09387 0.296043,-0.182796 0.597631,-0.358553 0.911823,-0.508016 0.03322,-0.0158 0.382887,-0.02217 0.40489,-0.02283 0.522163,0.0039 1.044172,0.01844 1.566304,0.02569 0.297066,0.0045 0.593407,-0.006 0.889045,0.02535 0.199879,0.02666 0.390268,0.08318 0.581379,0.144108 0.217779,0.08619 0.440555,0.159351 0.656852,0.249227 0.280972,0.123828 0.32824,0.225129 0.35586,0.522775 -0.0053,0.0651 -0.0088,0.130376 -0.01593,0.195296 -0.01902,0.171927 -0.04742,0.342715 -0.06708,0.514567 -0.0388,0.339204 -0.06882,0.679495 -0.09843,1.019586 -0.05409,0.815048 -0.194143,1.621356 -0.288208,2.432386 -0.04982,0.604935 -0.147786,1.202711 -0.262271,1.79828 -0.06314,0.281747 -0.100227,0.567864 -0.144526,0.852842 -0.01916,0.183285 -0.05676,0.363603 -0.08464,0.54556 -0.02167,0.143235 -0.02572,0.288102 -0.02807,0.432676 -0.0013,0.07047 -5.3e-4,0.140938 -2.65e-4,0.211407 0,0 -0.819997,0.417949 -0.819997,0.417949 v 0 c 4.3e-5,-0.07129 5.29e-4,-0.14257 0.0013,-0.213852 0.003,-0.148368 0.0069,-0.297214 0.02532,-0.44459 0.02658,-0.183462 0.06887,-0.363892 0.08885,-0.548336 0.04533,-0.28907 0.08621,-0.578985 0.156922,-0.863348 0.126132,-0.595572 0.234397,-1.193999 0.285067,-1.801328 0.09615,-0.809377 0.242001,-1.614009 0.28748,-2.428526 0.04278,-0.568076 0.09482,-1.135325 0.159959,-1.701266 -0.02506,-0.279416 -0.04377,-0.319174 -0.307686,-0.436009 -0.21612,-0.08664 -0.43656,-0.16288 -0.655672,-0.241448 -0.18583,-0.05966 -0.374872,-0.105987 -0.569121,-0.129233 -0.289351,-0.02689 -0.580208,-0.01984 -0.870432,-0.02973 -0.521531,-0.01201 -1.043342,-0.03009 -1.565021,-0.01902 -0.07069,0.005 -0.141798,0.0058 -0.212066,0.015 -0.06173,0.0081 -0.23178,0.07549 -0.183121,0.03667 0.197998,-0.15798 0.427612,-0.27169 0.643575,-0.404059 0.02747,-0.01683 -0.057,0.03274 -0.07785,0.05731 -0.0497,0.05857 -0.03621,0.103325 -0.03648,0.1743 -2.64e-4,0.224951 -0.0013,0.449897 -0.0013,0.674849 -5.3e-4,0.25551 -2.65e-4,0.511013 7.93e-4,0.766524 7.94e-4,0.235609 0.0019,0.471226 1.85e-4,0.706837 -0.0044,0.306446 -0.02159,0.612873 -0.05251,0.9178 -0.04776,0.439663 -0.130019,0.873924 -0.188265,1.312206 -0.03899,0.476764 -0.08954,0.952537 -0.120972,1.429936 -0.01979,0.487947 -0.02183,0.975868 -0.0098,1.464132 0.0075,0.387038 0.01468,0.774814 0.05479,1.160143 0,0 -0.812017,0.42306 -0.812017,0.42306 z"
       inkscape:connector-curvature="0"
       style="stroke-width:0.26458332" />
    <path
       id="path4055"
       d="m 91.760444,41.186861 c -0.346356,0.07052 -0.671386,0.213498 -0.97876,0.384422 0.201038,-0.113549 0.397796,-0.235035 0.603117,-0.340646 0.05979,-0.03075 -0.111752,0.07491 -0.165359,0.115477 -0.169725,0.128453 -0.336716,0.276582 -0.474689,0.439015 -0.0487,0.05734 -0.09058,0.12014 -0.135861,0.180208 -0.295259,0.458666 -0.351578,0.998016 -0.39488,1.528376 -0.01886,0.343781 -0.04852,0.692624 0.0453,1.029108 0.04383,0.157218 0.111993,0.296971 0.177647,0.445447 0.204901,0.421269 0.519353,0.648168 0.910693,0.879028 0.437494,0.206907 0.92148,0.293989 1.398309,0.355483 0.319972,0.02662 0.645441,0.06971 0.965266,0.01588 0.140711,-0.02368 0.25326,-0.06388 0.388615,-0.106246 0.06141,-0.02188 0.123423,-0.04218 0.184248,-0.06566 0.136139,-0.05255 0.204399,-0.08487 0.332743,-0.155768 0.05239,-0.02894 0.207293,-0.119706 0.154688,-0.09116 -0.649972,0.352722 -0.814792,0.503595 -0.484372,0.230172 0.241472,-0.21372 0.393708,-0.456015 0.483761,-0.763037 0.05964,-0.25376 0.0625,-0.515594 0.0637,-0.77487 -0.01752,-0.252349 -0.07179,-0.495527 -0.182558,-0.722931 -0.132164,-0.249815 -0.270721,-0.496589 -0.422708,-0.734968 -0.137399,-0.220339 -0.293535,-0.427469 -0.443937,-0.638921 -0.145531,-0.216987 -0.299783,-0.42073 -0.506362,-0.582253 -0.189196,-0.135363 -0.380765,-0.267427 -0.56846,-0.404788 -0.14034,-0.124137 -0.293463,-0.221396 -0.464328,-0.296987 -0.162219,-0.05177 -0.316092,-0.120285 -0.482354,-0.159348 -0.142938,-0.01976 -0.285715,-0.03448 -0.42853,-0.05564 0,0 0.74726,-0.526682 0.74726,-0.526682 v 0 c 0.145228,0.0205 0.292204,0.02968 0.435296,0.06312 0.167592,0.04717 0.328194,0.113705 0.491537,0.173461 0.171508,0.08419 0.32611,0.188857 0.47162,0.312965 0.1896,0.135993 0.377365,0.274478 0.566576,0.411014 0.209426,0.1705 0.370742,0.380169 0.522055,0.603004 0.148555,0.214342 0.308004,0.420915 0.443174,0.644284 0.152781,0.241808 0.294177,0.490485 0.429117,0.742654 0.118745,0.239445 0.177798,0.493694 0.203388,0.759579 -0.0024,0.266247 -0.0013,0.534892 -0.05589,0.79679 -0.07876,0.324376 -0.222832,0.582509 -0.467103,0.814425 -0.39559,0.36051 -0.107141,0.113868 -1.052177,0.676179 -0.213966,0.127315 -0.444249,0.222946 -0.68245,0.29445 -0.156083,0.04286 -0.234879,0.07057 -0.397232,0.09018 -0.323575,0.03908 -0.650669,-0.0048 -0.972768,-0.0346 -0.485931,-0.06835 -0.981215,-0.160018 -1.422706,-0.382702 -0.412957,-0.250446 -0.718521,-0.480676 -0.936483,-0.927824 -0.06619,-0.150093 -0.139996,-0.304091 -0.185517,-0.462405 -0.09924,-0.345146 -0.07436,-0.700198 -0.05284,-1.053703 0.03993,-0.540311 0.08994,-1.090499 0.367279,-1.569315 0.04377,-0.06341 0.08357,-0.129744 0.13131,-0.190225 0.404466,-0.512453 1.008944,-0.812482 1.56333,-1.12327 0.319471,-0.165544 0.654259,-0.303511 1.009137,-0.372102 0,0 -0.730837,0.551336 -0.730837,0.551336 z"
       inkscape:connector-curvature="0"
       style="stroke-width:0.26458332" />
    <path
       id="path4067"
       d="m 82.157521,144.03702 c 0.980107,-1.15042 1.975922,-2.28528 3.006,-3.39124 1.817378,-1.83503 3.891934,-3.3875 5.936314,-4.95633 1.797608,-1.34722 3.610977,-2.67542 5.492387,-3.90401 1.732709,-1.14069 3.535038,-2.1629 5.333838,-3.19427 1.45419,-0.8001 -2.056328,1.12847 -1.53397,0.89138 0.99923,-0.45353 2.08992,-1.75298 3.32978,-1.32488 0.14829,0.0512 0.28507,0.13105 0.42761,0.19658 0.7644,0.43532 1.3819,1.07005 2.03906,1.64356 0.58762,0.51281 0.89022,0.74557 1.512,1.24634 2.13868,1.58982 4.36536,3.04867 6.60569,4.48897 1.90922,1.16013 3.79395,2.36125 5.72023,3.49335 0.81139,0.47686 1.87504,1.06069 2.70163,1.51939 1.95805,1.06383 3.9241,2.11176 5.93996,3.06229 0.91827,0.40872 1.87356,0.73822 2.83884,1.01785 0.33074,0.10575 0.66711,0.18868 0.99929,0.28959 0,0 -2.12797,1.45297 -2.12797,1.45297 v 0 c -0.33069,-0.0986 -0.6638,-0.18872 -0.99204,-0.29538 -0.9584,-0.30495 -1.91598,-0.63157 -2.81797,-1.07986 -1.98191,-0.98999 -3.91731,-2.06816 -5.86036,-3.13162 -2.84949,-1.60758 -5.63442,-3.32259 -8.42719,-5.02606 -2.26205,-1.43638 -4.51318,-2.88903 -6.67538,-4.47417 -0.67519,-0.52738 -0.91311,-0.70277 -1.55023,-1.23824 -0.65116,-0.54726 -1.26436,-1.16077 -2.03312,-1.54601 -0.31695,-0.11241 -0.42811,-0.19144 -0.76276,-0.16883 -0.11484,0.008 -0.4323,0.13909 -0.33725,0.0742 0.73037,-0.49892 5.11832,-2.97306 -0.6414,0.32553 -0.1148,0.0657 -0.23201,0.12718 -0.348011,0.19078 0.602431,-0.35118 1.203921,-0.70398 1.807291,-1.05354 0.13508,-0.0782 -0.26864,0.15908 -0.40236,0.23961 -0.81263,0.48937 -1.619838,0.98714 -2.420952,1.49522 -1.911016,1.21612 -3.73748,2.5591 -5.556192,3.90763 -2.033587,1.55602 -4.095787,3.09598 -5.916395,4.90372 -1.003356,1.08062 -1.979324,2.18515 -2.899283,3.33808 0,0 -2.387087,1.00743 -2.387087,1.00743 z"
       inkscape:connector-curvature="0"
       style="stroke-width:0.26458332" />
    <path
       id="path4069"
       d="m 94.356988,149.20263 c -0.01664,0.62645 -0.0145,1.25327 -0.01603,1.8799 -0.0013,0.75995 -0.0016,1.51991 7.94e-4,2.27987 0.01461,0.5987 -0.06821,1.19356 -0.11715,1.7891 -0.04633,0.40009 -0.09091,0.80013 -0.11549,1.20221 -0.0082,0.17348 -0.02763,0.34508 0.02236,0.51305 0,0 -1.135626,0.62329 -1.135626,0.62329 v 0 c -0.06299,-0.18966 -0.0532,-0.36074 -0.03698,-0.55889 0.02365,-0.40503 0.07156,-0.80767 0.123261,-1.21 0.05472,-0.59447 0.143835,-1.18843 0.136194,-1.78635 0.0024,-0.76024 0.0021,-1.5205 7.94e-4,-2.28074 -0.0016,-0.62118 7.94e-4,-1.24256 -0.01603,-1.86355 0,0 1.153801,-0.58789 1.153801,-0.58789 z"
       inkscape:connector-curvature="0"
       style="stroke-width:0.26458332" />
    <path
       id="path4071"
       d="m 95.447973,148.82534 c 0.543073,0.0912 1.082186,0.20384 1.625976,0.29226 0.634741,0.1617 1.275993,0.28781 1.926246,0.36558 0.385318,0.0379 0.764656,-0.0389 1.145555,-0.0826 0.26897,-0.033 0.53956,-0.0438 0.81023,-0.0493 0.24586,-0.003 0.49175,-0.001 0.73762,-7.9e-4 0.20111,2.6e-4 0.44628,0.0187 0.59985,0.16853 0.0352,0.0343 0.0598,0.0781 0.0897,0.1171 0.19203,0.44869 0.16892,0.95487 0.17745,1.43385 0.008,0.57432 0.005,1.14872 0.006,1.72309 -0.002,0.48865 -10e-4,0.97731 -5.3e-4,1.46596 0.004,0.41656 0.006,0.83241 -0.0212,1.24819 -0.0117,0.32645 -0.15315,0.61023 -0.30586,0.89039 -0.12631,0.22403 -0.20263,0.47026 -0.30964,0.70303 -0.0516,0.0792 -0.0858,0.15105 -0.17186,0.20142 -1.076,0.62958 -0.96139,0.70498 -1.822441,0.75135 -0.574746,0.003 -1.143812,-0.0668 -1.713172,-0.13468 -0.684464,-0.0906 -1.359297,-0.24341 -2.033839,-0.38891 -0.452043,-0.0955 -0.898604,-0.21203 -1.350727,-0.30825 -0.310829,-0.0649 -0.62625,-0.0992 -0.943075,-0.11364 -0.202912,0.0143 -0.401357,0.05 -0.599887,0.0923 0,0 1.030981,-0.78088 1.030981,-0.78088 v 0 c 0.204004,-0.0389 0.410794,-0.072 0.619233,-0.0652 0.318445,0.0225 0.634336,0.0676 0.946542,0.13504 0.449111,0.0953 0.889179,0.22472 1.338738,0.31785 0.669354,0.15167 1.341996,0.29858 2.023989,0.38011 0.568121,0.0648 1.138368,0.12792 1.711318,0.10647 0.15118,-0.0137 0.26627,-0.0185 0.41333,-0.0524 0.0521,-0.012 0.19821,-0.0765 0.15333,-0.0474 -0.31803,0.20627 -0.65326,0.38479 -0.97719,0.58169 -0.0364,0.0222 0.0798,-0.0322 0.11434,-0.0572 0.0321,-0.0232 0.0551,-0.0568 0.0826,-0.0853 0.125,-0.22641 0.18455,-0.47937 0.30773,-0.70726 0.14868,-0.26813 0.31645,-0.52906 0.33795,-0.84431 0.0332,-0.41354 0.0304,-0.82708 0.029,-1.24179 0.002,-0.48941 0.003,-0.97882 0.004,-1.46823 0.004,-0.5745 0.008,-1.14905 0.002,-1.72355 -0.0107,-0.44867 0.008,-0.92442 -0.15911,-1.3482 -0.0228,-0.0268 -0.0413,-0.058 -0.0684,-0.0804 -0.14993,-0.12354 -0.37831,-0.1022 -0.55759,-0.10871 -0.24561,-5.3e-4 -0.49125,-10e-4 -0.736823,0.004 -0.266266,0.007 -0.532265,0.0224 -0.796808,0.0545 -0.383704,0.0465 -0.767821,0.10505 -1.154774,0.0499 -0.64566,-0.0931 -1.28197,-0.22943 -1.91729,-0.3767 -0.546735,-0.0898 -1.090602,-0.21023 -1.643393,-0.25434 0,0 1.049991,-0.76286 1.049991,-0.76286 z"
       inkscape:connector-curvature="0"
       style="stroke-width:0.26458332" />
    <path
       id="path4075"
       d="m 108.85666,149.65523 c -0.0708,0.74482 -0.0793,1.49406 -0.0907,2.24165 -0.009,0.94016 -0.0497,1.87964 -0.0701,2.8196 -0.007,0.5487 -0.0335,1.0983 0.0362,1.64398 0.0412,0.15444 0.0654,0.37315 0.20565,0.47983 0.0491,0.0373 0.15587,0.0614 0.21026,0.0769 0.39339,0.0601 0.7942,0.0488 1.19109,0.0499 0.71728,-2.7e-4 1.43456,10e-4 2.15183,0.002 0.84313,-0.007 1.6869,0.0139 2.52962,-0.0167 0.51264,-0.0111 1.01809,-0.097 1.52195,-0.18406 0.057,-0.0129 0.11587,-0.0193 0.17104,-0.0386 0.045,-0.0157 0.16862,-0.0889 0.12704,-0.0656 -0.33905,0.19 -0.67167,0.39239 -1.01952,0.56577 -0.0328,0.0164 0.049,-0.0559 0.0639,-0.0894 0.045,-0.10155 0.0483,-0.2247 0.06,-0.33151 -0.003,-0.074 -0.002,-0.14833 -0.009,-0.22211 -0.0129,-0.13937 -0.0575,-0.37446 -0.0795,-0.51014 -0.0477,-0.29354 -0.0824,-0.58705 -0.11264,-0.88282 -0.0549,-0.60992 -0.0622,-1.22286 -0.0672,-1.83483 -0.0129,-0.45798 0.0109,-0.91758 -0.0187,-1.37497 -0.0286,-0.229 -0.0568,-0.45713 -0.069,-0.68765 -0.0117,-0.29596 -5.3e-4,-0.59244 -0.0183,-0.88808 -0.0296,-0.24074 -0.10833,-0.3274 -0.33002,-0.40213 -0.27829,-0.11019 -0.57148,-0.16948 -0.85678,-0.25677 -0.45237,-0.11983 -0.92217,-0.14656 -1.38249,-0.22447 -0.64894,-0.11515 -1.30631,-0.1621 -1.96386,-0.19032 -0.60329,-0.0204 -1.20702,-0.0188 -1.81057,-0.0183 -0.37051,0.0193 -0.74984,-0.038 -1.11297,0.0526 0,0 1.03099,-0.77921 1.03099,-0.77921 v 0 c 0.36812,-0.0501 0.74129,-0.0117 1.11159,-0.0213 0.60268,0.001 1.20554,0.004 1.80786,0.0271 0.66163,0.0312 1.32159,0.0898 1.97528,0.19961 0.46982,0.0692 0.94876,0.0964 1.40714,0.22756 0.2916,0.0827 0.58759,0.1505 0.87026,0.26244 0.24964,0.11411 0.35985,0.25028 0.39906,0.52898 0.0249,0.29551 0.006,0.59258 0.0233,0.88873 0.0111,0.23055 0.0375,0.45929 0.0633,0.68858 0.0296,0.46248 -0.0128,0.92764 0.004,1.39077 0.005,0.60843 0.009,1.21765 0.0622,1.82425 0.0291,0.29259 0.0633,0.5824 0.11261,0.87237 0.0165,0.0973 0.0774,0.41919 0.0906,0.51982 0.0103,0.0784 0.0144,0.15754 0.0216,0.23631 -0.003,0.066 -0.0124,0.46256 -0.0739,0.50526 -0.58404,0.40571 -0.90905,0.69562 -1.50355,0.8001 -0.50106,0.0806 -1.00443,0.15254 -1.51319,0.15599 -0.84053,0.0184 -1.68147,-0.002 -2.52215,0.007 -0.72454,0.003 -1.44906,0.008 -2.17359,0.0135 -0.40966,7.9e-4 -0.82884,0.0195 -1.23002,-0.0757 -0.10425,-0.0428 -0.1666,-0.0576 -0.25164,-0.137 -0.14662,-0.13693 -0.18538,-0.36281 -0.23011,-0.5463 -0.0705,-0.55635 -0.031,-1.11684 -0.0169,-1.67568 0.0286,-0.9404 0.0741,-1.88055 0.0774,-2.82149 0.008,-0.74274 0.0142,-1.48562 0.0435,-2.22789 0,0 1.15729,-0.57761 1.15729,-0.57761 z"
       inkscape:connector-curvature="0"
       style="stroke-width:0.26458332" />
    <path
       id="path4091"
       d="m -19.481521,93.426591 c 0.842129,0.218615 1.717224,0.257445 2.577139,0.359868 0.823191,0.09805 1.643349,0.220157 2.465699,0.325032 2.702688,0.359402 5.4125571,0.637977 8.1342626,0.797484 2.2018326,0.111612 4.4069714,0.119245 6.6110547,0.124867 1.7919701,7.94e-4 3.5839442,-0.0051 5.3758544,-0.01974 0.1940558,-0.0019 0.3881115,-0.0035 0.5821672,-0.0053 0,0 -1.434743,1.042699 -1.434743,1.042699 v 0 c -0.1899352,-0.0013 -0.3798705,-0.0024 -0.5698056,-0.0037 -1.7779261,-0.0097 -3.55587807,-0.0078 -5.3338216,-0.01175 -2.1997964,-0.0077 -4.4008498,-0.0191 -6.5976735,-0.146785 -2.7193932,-0.17684 -5.4257402,-0.478994 -8.1300312,-0.812924 -0.09452,-0.01114 -2.330829,-0.275739 -2.501422,-0.292915 -0.893874,-0.09001 -1.795607,-0.131117 -2.679068,-0.307478 0,0 1.500388,-1.049393 1.500388,-1.049393 z"
       inkscape:connector-curvature="0"
       style="stroke-width:0.26458332" />
    <path
       id="path4093"
       d="m -8.0945828,89.844418 c -0.096273,0.91693 -0.2948172,1.81545 -0.4915669,2.71457 -0.2418141,1.171792 -0.4417629,2.350598 -0.6965789,3.520019 -0.1808562,1.002893 -0.532144,1.968156 -0.9348334,2.901439 -0.289736,0.67155 -0.755471,1.234744 -1.190256,1.814264 -0.444045,0.57706 -0.870862,1.16678 -1.307462,1.74946 -0.39754,0.55788 -0.767333,1.13206 -1.217916,1.64944 -0.406114,0.45959 -0.89186,0.83339 -1.391291,1.18441 -0.323769,0.2345 -0.659828,0.45062 -0.974465,0.69752 -0.19621,0.15348 -0.392354,0.30683 -0.584724,0.46511 0,0 -1.694966,0.68471 -1.694966,0.68471 v 0 c 0.189347,-0.16164 0.381374,-0.3201 0.582282,-0.46734 0.311052,-0.26043 0.648404,-0.48104 0.980186,-0.71347 0.499576,-0.34974 1.006603,-0.69566 1.418772,-1.15128 0.466761,-0.50219 0.835559,-1.07381 1.226236,-1.63536 0.435467,-0.58208 0.863991,-1.16886 1.302975,-1.74819 0.435084,-0.5741 0.907439,-1.12733 1.219768,-1.782222 0.418891,-0.921729 0.784604,-1.881418 0.970893,-2.879038 0.260602,-1.167397 0.460338,-2.344499 0.692646,-3.517225 0.1880246,-0.883785 0.3980234,-1.764757 0.4511919,-2.670281 0,0 1.6391093,-0.816536 1.6391093,-0.816536 z"
       inkscape:connector-curvature="0"
       style="stroke-width:0.26458332" />
    <path
       id="path4095"
       d="m -9.0704687,95.615777 c -0.037564,0.862328 -0.027087,1.72212 0.044159,2.582072 0.065576,0.868812 0.1846871,1.732444 0.2908014,2.596931 0.079631,0.47014 0.1574496,0.94501 0.3415224,1.38813 0.081842,0.19702 0.1697751,0.3456 0.2719435,0.53189 0.2803821,0.51571 0.7434939,0.84813 1.248797,1.11955 0.082011,0.0422 0.1625619,0.0873 0.2460318,0.12651 0.172143,0.0808 0.2855979,0.11299 0.4560999,0.19382 0.209827,0.0995 0.4058536,0.22596 0.6069502,0.3414 0.3760716,0.21859 0.7235372,0.4807 1.0780956,0.73153 0.2109792,0.16595 0.1022045,0.0883 0.3261968,0.23326 0,0 -1.536981,0.98463 -1.536981,0.98463 v 0 c -0.2293141,-0.15555 -0.1188735,-0.0764 -0.3317774,-0.23695 -0.3482956,-0.24996 -0.688852,-0.51271 -1.0657821,-0.71945 -0.4205476,-0.248 -0.8620877,-0.44491 -1.2969661,-0.66534 -0.5251585,-0.30151 -1.0122342,-0.6586 -1.3021222,-1.20672 -0.1039255,-0.19141 -0.1997626,-0.35595 -0.2827899,-0.55843 -0.1872652,-0.45671 -0.2657102,-0.94466 -0.3525832,-1.4274 -0.105804,-0.86872 -0.210751,-1.737948 -0.280381,-2.610489 -0.06903,-0.856752 -0.08848,-1.712388 -0.09662,-2.571665 0,0 1.6354014,-0.833279 1.6354014,-0.833279 z"
       inkscape:connector-curvature="0"
       style="stroke-width:0.26458332" />
    <path
       id="path4097"
       d="m 21.21113,91.799364 c -0.03517,1.285732 -0.0412,2.5722 -0.04972,3.858344 -0.0075,1.99716 -0.01102,3.994367 0.0037,5.991502 0.0074,1.35111 0.0098,2.70228 0.02334,4.05335 0.01627,0.62593 -0.03854,1.23642 -0.250528,1.82621 -0.07099,0.21484 -0.167033,0.4174 -0.270717,0.61774 0,0 -1.664084,0.74446 -1.664084,0.74446 v 0 c 0.112842,-0.19027 0.216047,-0.38315 0.284478,-0.59494 0.04913,-0.12427 0.128953,-0.3167 0.165355,-0.44615 0.122199,-0.43457 0.119464,-0.89148 0.14733,-1.33811 0.01348,-1.359 0.016,-2.71809 0.02334,-4.07713 0.0146,-1.99838 0.01128,-3.996846 0.0037,-5.995257 -0.0085,-1.269251 -0.01422,-2.538852 -0.04972,-3.807677 0,0 1.633562,-0.832342 1.633562,-0.832342 z"
       inkscape:connector-curvature="0"
       style="stroke-width:0.26458332" />
    <path
       id="path4099"
       d="m 21.174168,99.687212 c 0.665198,0.01037 1.330524,0.009 1.995783,0.0077 0.574055,-0.01508 1.145007,-0.007 1.713557,0.07721 0.32701,0.0922 0.672144,0.120912 0.996096,0.224608 0.155353,0.04973 0.319624,0.12936 0.467588,0.19637 0.278882,0.15815 0.582705,0.29093 0.834792,0.49293 0.121134,0.0971 0.249629,0.24342 0.354426,0.35582 0.407453,0.4757 0.597389,1.0682 0.802319,1.64762 0.222348,0.64158 0.367602,1.30297 0.461346,1.9743 0.08595,0.49848 0.06478,0.9777 -0.106434,1.45263 -0.508833,1.05951 -1.423384,1.29348 -2.486639,1.90355 -0.538202,0.20991 -1.12854,0.26769 -1.699937,0.33059 -0.56802,0.0952 -1.140918,0.14757 -1.715633,0.17784 -0.434859,0.0196 -0.87009,0.0228 -1.305297,0.0221 -0.394667,-0.0126 -0.791776,0.0244 -1.184522,-0.0211 0,0 1.489104,-1.06267 1.489104,-1.06267 v 0 c 0.389918,0.0207 0.781011,0.007 1.171334,0.0111 0.431324,-0.002 0.862887,-0.004 1.293752,-0.026 0.570634,-0.0344 1.138009,-0.0972 1.703338,-0.18263 0.564891,-0.0717 1.149961,-0.13161 1.66592,-0.38885 -0.445569,0.26224 -0.890426,0.5257 -1.336707,0.78672 -0.06492,0.038 0.13166,-0.0734 0.192593,-0.11754 0.240223,-0.17381 0.416832,-0.4129 0.55876,-0.66981 0.204407,-0.43983 0.227367,-0.89433 0.156094,-1.37227 -0.07907,-0.66188 -0.216657,-1.31257 -0.438338,-1.94265 -0.200123,-0.55452 -0.374989,-1.12509 -0.774284,-1.57632 -0.348613,-0.35812 -0.695275,-0.57895 -1.150237,-0.78756 -0.459658,-0.19234 -0.943252,-0.29475 -1.433285,-0.38063 -0.56151,-0.0673 -1.125046,-0.07 -1.690091,-0.0643 -0.672322,-0.001 -1.344707,-0.003 -2.016971,0.008 0,0 1.481573,-1.076422 1.481573,-1.076422 z"
       inkscape:connector-curvature="0"
       style="stroke-width:0.26458332" />
    <path
       id="path4105"
       d="m 21.283668,91.64472 c 0.565552,0.292696 1.189062,0.433589 1.814006,0.528482 0.871617,0.101716 1.750707,0.106849 2.627097,0.111508 0.414821,0.0322 0.837263,-0.03925 1.251598,-0.0072 0.132289,0.01024 0.257241,0.04972 0.384034,0.08423 0.290198,0.115512 0.360596,0.367744 0.41102,0.647829 0.05046,0.20786 0.02384,0.102717 0.08,0.315389 0,0 -1.608893,0.873289 -1.608893,0.873289 v 0 c -0.05833,-0.216736 -0.02871,-0.108336 -0.08885,-0.325197 -0.04476,-0.217178 -0.05212,-0.405392 -0.29999,-0.471474 -0.518131,-0.113998 -1.056917,-0.02873 -1.582665,-0.0628 -0.882843,-0.01212 -1.768877,-0.01892 -2.645993,-0.130776 -0.649158,-0.107908 -1.29419,-0.267682 -1.883434,-0.569537 0,0 1.542078,-0.99378 1.542078,-0.99378 z"
       inkscape:connector-curvature="0"
       style="stroke-width:0.26458332" />
    <path
       id="path4109"
       d="m 48.701081,93.88867 c -0.686512,0.130342 -1.348145,0.356777 -1.980361,0.65255 -1.115481,0.591423 0.502989,-0.318948 0.767302,-0.455274 0.129003,-0.06654 -0.243356,0.158477 -0.361064,0.243411 -0.375158,0.270709 -0.694047,0.576027 -1.011541,0.91041 -0.633881,0.735915 -0.89208,1.493592 -1.068671,2.430148 -0.07598,0.659892 -0.185584,1.345462 -0.04828,2.006253 0.02394,0.115208 0.06607,0.225875 0.0991,0.338812 0.296455,0.79541 0.910283,1.17189 1.61798,1.56293 0.884235,0.48616 1.871612,0.59928 2.85954,0.67541 0.809881,0.0474 1.625867,0.0721 2.432867,-0.0342 0.515369,-0.0679 0.726057,-0.13766 1.22696,-0.26585 0.193974,-0.0626 0.389732,-0.11982 0.581922,-0.18765 0.459928,-0.16232 0.707909,-0.26588 1.138495,-0.49097 0.178104,-0.0931 0.705977,-0.38379 0.524951,-0.29651 -1.020275,0.49193 -1.398428,0.8352 -0.564538,0.17708 0.606205,-0.55135 1.16949,-1.192449 1.5055,-1.94908 0.05412,-0.121859 0.09438,-0.249407 0.141568,-0.37411 0.163277,-0.625351 0.286001,-1.292069 0.20375,-1.940502 -0.01543,-0.121555 -0.04554,-0.240792 -0.06831,-0.361188 -0.217879,-0.834726 -0.675301,-1.248034 -1.38163,-1.693696 -0.7093,-0.460306 -1.508554,-0.733946 -2.32532,-0.928976 -0.793263,-0.161509 -1.603944,-0.184396 -2.410483,-0.20008 -0.64647,0.02898 -1.272175,-0.145664 -1.891792,-0.304742 -0.259459,-0.06975 -0.523315,-0.117769 -0.789435,-0.152472 0,0 1.497206,-1.053705 1.497206,-1.053705 v 0 c 0.26553,0.0459 0.52856,0.103584 0.788183,0.17631 0.607147,0.159356 1.220816,0.304953 1.85407,0.280112 0.814398,0.02056 1.63258,0.05685 2.430682,0.234384 0.829702,0.213127 1.636199,0.508045 2.35862,0.978072 0.732105,0.482962 1.22755,0.941474 1.459019,1.816499 0.05783,0.293169 0.108127,0.483568 0.114707,0.786183 0.01151,0.528746 -0.09352,1.091345 -0.210701,1.604142 -0.123962,0.356693 -0.142235,0.455681 -0.327258,0.793568 -0.334311,0.610515 -0.800465,1.152121 -1.302811,1.628451 -1.021223,0.83594 -0.430135,0.38651 -2.458564,1.59488 -0.707268,0.42133 -1.479978,0.71842 -2.271717,0.93648 -0.537208,0.12601 -0.691055,0.17815 -1.242743,0.24246 -0.81616,0.0951 -1.639194,0.0672 -2.457045,0.0166 -1.012759,-0.0843 -2.016456,-0.22001 -2.917312,-0.72839 -0.745495,-0.41814 -1.383003,-0.84151 -1.698254,-1.67673 -0.03694,-0.1215 -0.08364,-0.24046 -0.110832,-0.36451 -0.148783,-0.678771 -0.04231,-1.381305 0.03227,-2.061049 0.165963,-0.957337 0.404919,-1.749338 1.024904,-2.522202 0.248242,-0.273814 0.355242,-0.406624 0.635195,-0.654118 0.889821,-0.786646 1.979438,-1.319684 3.030855,-1.85265 0.655992,-0.281895 1.333961,-0.501597 2.033627,-0.647261 0,0 -1.460608,1.110787 -1.460608,1.110787 z"
       inkscape:connector-curvature="0"
       style="stroke-width:0.26458332" />
    <path
       id="path4111"
       d="m 50.997402,89.481431 c -0.0035,0.117941 -0.01487,0.235903 -0.01064,0.35382 0.01024,0.285641 0.08958,0.98448 0.114501,1.231413 0.09193,0.911032 0.170003,1.823117 0.262139,2.734156 0.164084,1.48716 0.237807,2.982357 0.366773,4.472414 0.04733,0.546894 0.158099,1.513607 0.219647,2.066896 0.207332,1.73319 0.277301,3.47775 0.383722,5.21884 0.05095,0.98809 0.09678,1.97526 0.186553,2.96064 0,0 -1.604566,0.83388 -1.604566,0.83388 v 0 c -0.06978,-0.99635 -0.09835,-1.99376 -0.136602,-2.99172 -0.08353,-1.74448 -0.154228,-3.49094 -0.346723,-5.22777 -0.04046,-0.38916 -0.179335,-1.707196 -0.210246,-2.078917 -0.123653,-1.486953 -0.19423,-2.979111 -0.374351,-4.46123 -0.104193,-0.903218 -0.191749,-1.808665 -0.302411,-2.711098 -0.05027,-0.40999 -0.12696,-0.816763 -0.16705,-1.227875 -0.01111,-0.113843 -0.0071,-0.228653 -0.01064,-0.342982 0,0 1.629884,-0.830467 1.629884,-0.830467 z"
       inkscape:connector-curvature="0"
       style="stroke-width:0.26458332" />
  </g>
</svg>
