<?xml version="1.0" encoding="UTF-8" standalone="no"?>
<!-- Created with Inkscape (http://www.inkscape.org/) -->

<svg
   xmlns:dc="http://purl.org/dc/elements/1.1/"
   xmlns:cc="http://creativecommons.org/ns#"
   xmlns:rdf="http://www.w3.org/1999/02/22-rdf-syntax-ns#"
   xmlns:svg="http://www.w3.org/2000/svg"
   xmlns="http://www.w3.org/2000/svg"
   xmlns:sodipodi="http://sodipodi.sourceforge.net/DTD/sodipodi-0.dtd"
   xmlns:inkscape="http://www.inkscape.org/namespaces/inkscape"
   width="371.29166mm"
   height="59.33783mm"
   viewBox="0 0 371.29166 59.33783"
   version="1.1"
   id="svg8"
   inkscape:version="0.92.4 (unknown)"
   sodipodi:docname="logo.svg">
  <defs
     id="defs2" />
  <sodipodi:namedview
     id="base"
     pagecolor="#ffffff"
     bordercolor="#666666"
     borderopacity="1.0"
     inkscape:pageopacity="0.0"
     inkscape:pageshadow="2"
     inkscape:zoom="0.49497475"
     inkscape:cx="1155.0174"
     inkscape:cy="-266.70477"
     inkscape:document-units="mm"
     inkscape:current-layer="layer1"
     showgrid="false"
     inkscape:window-width="2560"
     inkscape:window-height="1403"
     inkscape:window-x="0"
     inkscape:window-y="0"
     inkscape:window-maximized="1"
     fit-margin-top="0"
     fit-margin-left="0"
     fit-margin-right="0"
     fit-margin-bottom="0" />
  <metadata
     id="metadata5">
    <rdf:RDF>
      <cc:Work
         rdf:about="">
        <dc:format>image/svg+xml</dc:format>
        <dc:type
           rdf:resource="http://purl.org/dc/dcmitype/StillImage" />
        <dc:title></dc:title>
      </cc:Work>
    </rdf:RDF>
  </metadata>
  <g
     inkscape:label="Layer 1"
     inkscape:groupmode="layer"
     id="layer1"
     transform="translate(103.85985,-55.337192)">
    <g
       id="g842"
       transform="matrix(0.78982786,-0.13926796,0.13926796,0.78982786,-141.26373,35.897633)"
       style="stroke-width:1.87029564;stroke-miterlimit:4;stroke-dasharray:none">
      <g
         id="g833"
         style="stroke-width:1.87029564;stroke-miterlimit:4;stroke-dasharray:none">
        <path
           style="fill:none;stroke:#000000;stroke-width:1.87029564;stroke-linecap:round;stroke-linejoin:miter;stroke-miterlimit:4;stroke-dasharray:none;stroke-opacity:1"
           d="M 37.041663,92.136904 C 23.809607,58.853805 73.240606,38.911675 97.423356,60.008928"
           id="path828"
           inkscape:connector-curvature="0"
           sodipodi:nodetypes="cc" />
        <path
           style="fill:none;stroke:#000000;stroke-width:1.87029564;stroke-linecap:round;stroke-linejoin:miter;stroke-miterlimit:4;stroke-dasharray:none;stroke-opacity:1"
           d="m 39.970987,97.428572 c 29.202952,29.590578 76.138673,3.822458 61.137643,-24.473964 -2.131114,-3.55185 -2.362354,-3.13121 -2.362354,-6.69269"
           id="path830"
           inkscape:connector-curvature="0"
           sodipodi:nodetypes="ccc" />
        <path
           style="fill:none;stroke:#000000;stroke-width:1.87029564;stroke-linecap:round;stroke-linejoin:miter;stroke-miterlimit:4;stroke-dasharray:none;stroke-opacity:1"
           d="m 85.895088,76.261905 c -1.28751,5.92966 -7.382,7.96098 -12.28423,9.92187 -11.2937,4.51749 -19.4443,9.531022 -32.31696,10.961312 -2.58413,0.28713 -5.39674,-0.22467 -7.9375,0.28348 -0.92711,0.18542 -2.45684,2.36288 -2.45684,1.41741 0,-2.26385 5.30528,-3.42901 5.95312,-4.724702 0.19721,-0.39441 -1.5417,0.38287 -1.32292,0 0.7566,-1.32404 4.66909,-1.7565 3.59078,-2.83482 -2.05168,-2.05167 3.40624,-3.69417 4.53571,-5.95312 0.0273,-0.0546 -1.05942,0.07 -0.85044,-0.66146 0.21209,-0.74233 0.7831,-1.54992 1.22842,-2.17336 2.52216,-3.53104 15.23033,-10.01824 20.31622,-10.58334"
           id="path832"
           inkscape:connector-curvature="0" />
        <path
           style="fill:none;stroke:#000000;stroke-width:1.87029564;stroke-linecap:round;stroke-linejoin:miter;stroke-miterlimit:4;stroke-dasharray:none;stroke-opacity:1"
           d="m 97.423356,60.008928 c 1.20094,-0.20021 12.717634,-0.93377 4.157744,1.5119 -2.642924,0.75513 -4.004154,2.26786 -6.992564,2.26786"
           id="path834"
           inkscape:connector-curvature="0"
           sodipodi:nodetypes="ccc" />
        <path
           style="fill:none;stroke:#000000;stroke-width:1.87029564;stroke-linecap:round;stroke-linejoin:miter;stroke-miterlimit:4;stroke-dasharray:none;stroke-opacity:1"
           d="m 84.666666,61.615328 c -3.79281,1.01628 -0.82403,5.54334 2.87773,2.76701 2.33642,-2.33642 -0.70327,-3.58243 -2.87773,-2.76701 z"
           id="path836"
           inkscape:connector-curvature="0"
           sodipodi:nodetypes="ccc" />
        <path
           style="fill:none;stroke:#000000;stroke-width:1.87029564;stroke-linecap:round;stroke-linejoin:miter;stroke-miterlimit:4;stroke-dasharray:none;stroke-opacity:1"
           d="m 99.316316,63.688168 c 5.284244,0.28249 7.991984,-1.529 5.311984,0.50115 -1.80811,2.07038 -4.53416,1.40429 -6.614924,2.03793 -0.24333,0.0869 -2.66513,0.7684 -2.93997,0.7684"
           id="path840"
           inkscape:connector-curvature="0"
           sodipodi:nodetypes="cccc" />
      </g>
    </g>
    <g
       aria-label="PTAKOPĚT"
       transform="matrix(0.26458333,0,0,0.26458333,-239.70175,-35.786789)"
       style="font-style:normal;font-variant:normal;font-weight:normal;font-stretch:normal;font-size:40px;line-height:1.25;font-family:rsfs10;-inkscape-font-specification:rsfs10;letter-spacing:0px;word-spacing:0px;fill:#000000;fill-opacity:1;stroke:none"
       id="flowRoot880">
      <path
         d="m 814.60287,407.27018 v 62.08985 h 28.11198 q 15.60546,0 24.1276,-8.07943 8.52214,-8.07943 8.52214,-23.02083 0,-14.83073 -8.52214,-22.91016 -8.52214,-8.07943 -24.1276,-8.07943 z m -22.35678,-18.37239 h 50.46876 q 27.77994,0 41.94661,12.61719 14.27734,12.50651 14.27734,36.74479 0,24.45963 -14.27734,36.96614 -14.16667,12.50651 -41.94661,12.50651 h -28.11198 v 66.40626 h -22.35678 z"
         style="font-style:normal;font-variant:normal;font-weight:normal;font-stretch:normal;font-size:226.66667175px;font-family:Roboto;-inkscape-font-specification:Roboto"
         id="path3722"
         inkscape:connector-curvature="0" />
      <path
         d="M 906.13281,388.89779 H 1045.918 v 18.8151 H 987.25912 V 554.13868 H 964.79167 V 407.71289 h -58.65886 z"
         style="font-style:normal;font-variant:normal;font-weight:normal;font-stretch:normal;font-size:226.66667175px;font-family:Roboto;-inkscape-font-specification:Roboto"
         id="path3724"
         inkscape:connector-curvature="0" />
      <path
         d="m 1105.1302,410.92253 -30.3255,82.23307 h 60.7617 z m -12.6172,-22.02474 h 25.3451 l 62.9752,165.24089 h -23.2422 l -15.052,-42.38933 h -74.4857 l -15.0521,42.38933 h -23.5742 z"
         style="font-style:normal;font-variant:normal;font-weight:normal;font-stretch:normal;font-size:226.66667175px;font-family:Roboto;-inkscape-font-specification:Roboto"
         id="path3726"
         inkscape:connector-curvature="0" />
      <path
         d="m 1204.8503,388.89779 h 22.3568 v 69.83724 l 74.1536,-69.83724 h 28.776 l -82.0117,77.03125 87.8776,88.20964 h -29.4401 l -79.3554,-79.57683 v 79.57683 h -22.3568 z"
         style="font-style:normal;font-variant:normal;font-weight:normal;font-stretch:normal;font-size:226.66667175px;font-family:Roboto;-inkscape-font-specification:Roboto"
         id="path3728"
         inkscape:connector-curvature="0" />
      <path
         d="m 1408.2748,404.06055 q -24.349,0 -38.737,18.15104 -14.2773,18.15104 -14.2773,49.47266 0,31.21094 14.2773,49.36198 14.388,18.15104 38.737,18.15104 24.3489,0 38.5156,-18.15104 14.2774,-18.15104 14.2774,-49.36198 0,-31.32162 -14.2774,-49.47266 -14.1667,-18.15104 -38.5156,-18.15104 z m 0,-18.15104 q 34.7526,0 55.5599,23.35286 20.8073,23.24219 20.8073,62.42188 0,39.06901 -20.8073,62.42187 -20.8073,23.24219 -55.5599,23.24219 -34.8633,0 -55.7813,-23.24219 -20.8073,-23.24218 -20.8073,-62.42187 0,-39.17969 20.8073,-62.42188 20.918,-23.35286 55.7813,-23.35286 z"
         style="font-style:normal;font-variant:normal;font-weight:normal;font-stretch:normal;font-size:226.66667175px;font-family:Roboto;-inkscape-font-specification:Roboto"
         id="path3730"
         inkscape:connector-curvature="0" />
      <path
         d="m 1541.9727,407.27018 v 62.08985 h 28.112 q 15.6054,0 24.1276,-8.07943 8.5221,-8.07943 8.5221,-23.02083 0,-14.83073 -8.5221,-22.91016 -8.5222,-8.07943 -24.1276,-8.07943 z m -22.3568,-18.37239 h 50.4688 q 27.7799,0 41.9466,12.61719 14.2773,12.50651 14.2773,36.74479 0,24.45963 -14.2773,36.96614 -14.1667,12.50651 -41.9466,12.50651 h -28.112 v 66.40626 h -22.3568 z"
         style="font-style:normal;font-variant:normal;font-weight:normal;font-stretch:normal;font-size:226.66667175px;font-family:Roboto;-inkscape-font-specification:Roboto"
         id="path3732"
         inkscape:connector-curvature="0" />
      <path
         d="m 1656.4128,388.89779 h 104.4792 v 18.8151 h -82.1224 v 48.91927 h 78.6914 v 18.81511 h -78.6914 v 59.8763 h 84.1145 v 18.81511 h -106.4713 z m 42.3893,-15.05209 -23.3529,-29.4401 h 15.3842 l 18.3724,19.70052 18.3723,-19.70052 h 15.3842 l -23.3529,29.4401 z"
         style="font-style:normal;font-variant:normal;font-weight:normal;font-stretch:normal;font-size:226.66667175px;font-family:Roboto;-inkscape-font-specification:Roboto"
         id="path3734"
         inkscape:connector-curvature="0" />
      <path
         d="m 1776.9401,388.89779 h 139.7852 v 18.8151 h -58.6589 V 554.13868 H 1835.599 V 407.71289 h -58.6589 z"
         style="font-style:normal;font-variant:normal;font-weight:normal;font-stretch:normal;font-size:226.66667175px;font-family:Roboto;-inkscape-font-specification:Roboto"
         id="path3736"
         inkscape:connector-curvature="0" />
    </g>
  </g>
</svg>
