<?xml version="1.0" encoding="UTF-8"?>
<!DOCTYPE svg PUBLIC "-//W3C//DTD SVG 1.1//EN" "http://www.w3.org/Graphics/SVG/1.1/DTD/svg11.dtd">
<svg xmlns="http://www.w3.org/2000/svg" xmlns:xlink="http://www.w3.org/1999/xlink" version="1.1" width="519px" height="484px" viewBox="-0.5 -0.5 519 484"><defs><clipPath id="mx-clip-25-109-272-26-0"><rect x="25" y="109" width="272" height="26"/></clipPath><clipPath id="mx-clip-25-135-272-26-0"><rect x="25" y="135" width="272" height="26"/></clipPath><clipPath id="mx-clip-25-246-132-26-0"><rect x="25" y="246" width="132" height="26"/></clipPath><clipPath id="mx-clip-25-272-132-26-0"><rect x="25" y="272" width="132" height="26"/></clipPath><clipPath id="mx-clip-181-389-152-26-0"><rect x="181" y="389" width="152" height="26"/></clipPath><clipPath id="mx-clip-25-459-132-26-0"><rect x="25" y="459" width="132" height="26"/></clipPath><clipPath id="mx-clip-25-389-132-26-0"><rect x="25" y="389" width="132" height="26"/></clipPath><clipPath id="mx-clip-361-389-153-26-0"><rect x="361" y="389" width="153" height="26"/></clipPath><clipPath id="mx-clip-341-135-132-26-0"><rect x="341" y="135" width="132" height="26"/></clipPath><clipPath id="mx-clip-361-246-152-44-0"><rect x="361" y="246" width="152" height="44"/></clipPath><clipPath id="mx-clip-191-246-122-26-0"><rect x="191" y="246" width="122" height="26"/></clipPath><clipPath id="mx-clip-191-272-122-26-0"><rect x="191" y="272" width="122" height="26"/></clipPath><clipPath id="mx-clip-341-31-132-26-0"><rect x="341" y="31" width="132" height="26"/></clipPath><clipPath id="mx-clip-341-57-132-26-0"><rect x="341" y="57" width="132" height="26"/></clipPath></defs><g><path d="M 21 104 L 21 78 L 301 78 L 301 104" fill="none" stroke="#000000" stroke-miterlimit="10" pointer-events="all"/><path d="M 21 104 L 21 156 L 301 156 L 301 104" fill="none" stroke="#000000" stroke-miterlimit="10" pointer-events="none"/><path d="M 21 104 L 301 104" fill="none" stroke="#000000" stroke-miterlimit="10" pointer-events="none"/><g fill="#000000" font-family="Helvetica" font-weight="bold" text-anchor="middle" font-size="12px"><text x="160.5" y="95.5">AsyncMessage</text></g><g fill="#000000" font-family="Helvetica" clip-path="url(#mx-clip-25-109-272-26-0)" font-size="12px"><text x="26.5" y="121.5">+ indicatorHandle: IndicatorManager</text></g><g fill="#000000" font-family="Helvetica" clip-path="url(#mx-clip-25-135-272-26-0)" font-size="12px"><text x="26.5" y="147.5">+ dispatch(Promise&lt;T&gt;, (data: T) =&gt; void))</text></g><path d="M 407 156 L 407 188 L 161 188 L 161 162.37" fill="none" stroke="#000000" stroke-miterlimit="10" pointer-events="none"/><path d="M 161 157.12 L 164.5 164.12 L 161 162.37 L 157.5 164.12 Z" fill="#000000" stroke="#000000" stroke-miterlimit="10" pointer-events="none"/><path d="M 91 215 L 91 188 L 161 188 L 161 162.37" fill="none" stroke="#000000" stroke-miterlimit="10" pointer-events="none"/><path d="M 161 157.12 L 164.5 164.12 L 161 162.37 L 157.5 164.12 Z" fill="#000000" stroke="#000000" stroke-miterlimit="10" pointer-events="none"/><path d="M 21 241 L 21 215 L 161 215 L 161 241" fill="none" stroke="#000000" stroke-miterlimit="10" pointer-events="none"/><path d="M 21 241 L 21 293 L 161 293 L 161 241" fill="none" stroke="#000000" stroke-miterlimit="10" pointer-events="none"/><path d="M 21 241 L 161 241" fill="none" stroke="#000000" stroke-miterlimit="10" pointer-events="none"/><g fill="#000000" font-family="Helvetica" font-weight="bold" text-anchor="middle" font-size="12px"><text x="90.5" y="232.5">Translator</text></g><g fill="#000000" font-family="Helvetica" clip-path="url(#mx-clip-25-246-132-26-0)" font-size="12px"><text x="26.5" y="258.5">+ translate {abstract}</text></g><g fill="#000000" font-family="Helvetica" clip-path="url(#mx-clip-25-272-132-26-0)" font-size="12px"><text x="26.5" y="284.5">+ translate_throttle()</text></g><path d="M 227 358 L 227 338 L 127 338 L 127 318.99" fill="none" stroke="#000000" stroke-miterlimit="10" pointer-events="none"/><path d="M 127 293.99 L 134.35 306.49 L 127 318.99 L 119.65 306.49 Z" fill="none" stroke="#000000" stroke-miterlimit="10" pointer-events="none"/><path d="M 259 358 L 259 318.99" fill="none" stroke="#000000" stroke-miterlimit="10" pointer-events="none"/><path d="M 259 293.99 L 266.35 306.49 L 259 318.99 L 251.65 306.49 Z" fill="none" stroke="#000000" stroke-miterlimit="10" pointer-events="none"/><path d="M 177 384 L 177 358 L 337 358 L 337 384" fill="none" stroke="#000000" stroke-miterlimit="10" pointer-events="none"/><path d="M 177 384 L 177 410 L 337 410 L 337 384" fill="none" stroke="#000000" stroke-miterlimit="10" pointer-events="none"/><path d="M 177 384 L 337 384" fill="none" stroke="#000000" stroke-miterlimit="10" pointer-events="none"/><g fill="#000000" font-family="Helvetica" font-weight="bold" text-anchor="middle" font-size="12px"><text x="256.5" y="375.5">Throttler</text></g><g fill="#000000" font-family="Helvetica" clip-path="url(#mx-clip-181-389-152-26-0)" font-size="12px"><text x="182.5" y="401.5">+ throttle(() =&gt; any)</text></g><path d="M 21 438 L 7 438 L 7 338 L 91 338 L 91 299.37" fill="none" stroke="#000000" stroke-miterlimit="10" pointer-events="none"/><path d="M 91 294.12 L 94.5 301.12 L 91 299.37 L 87.5 301.12 Z" fill="#000000" stroke="#000000" stroke-miterlimit="10" pointer-events="none"/><path d="M 21 454 L 21 428 L 161 428 L 161 454" fill="none" stroke="#000000" stroke-miterlimit="10" pointer-events="none"/><path d="M 21 454 L 21 480 L 161 480 L 161 454" fill="none" stroke="#000000" stroke-miterlimit="10" pointer-events="none"/><path d="M 21 454 L 161 454" fill="none" stroke="#000000" stroke-miterlimit="10" pointer-events="none"/><g fill="#000000" font-family="Helvetica" font-weight="bold" text-anchor="middle" font-size="12px"><text x="90.5" y="445.5">TranslatorSource</text></g><g fill="#000000" font-family="Helvetica" clip-path="url(#mx-clip-25-459-132-26-0)" font-size="12px"><text x="26.5" y="471.5">+ translate()</text></g><path d="M 91 358 L 91 338 L 91 299.37" fill="none" stroke="#000000" stroke-miterlimit="10" pointer-events="none"/><path d="M 91 294.12 L 94.5 301.12 L 91 299.37 L 87.5 301.12 Z" fill="#000000" stroke="#000000" stroke-miterlimit="10" pointer-events="none"/><path d="M 21 384 L 21 358 L 161 358 L 161 384" fill="none" stroke="#000000" stroke-miterlimit="10" pointer-events="none"/><path d="M 21 384 L 21 410 L 161 410 L 161 384" fill="none" stroke="#000000" stroke-miterlimit="10" pointer-events="none"/><path d="M 21 384 L 161 384" fill="none" stroke="#000000" stroke-miterlimit="10" pointer-events="none"/><g fill="#000000" font-family="Helvetica" font-weight="bold" text-anchor="middle" font-size="12px"><text x="90.5" y="375.5">TranslatorTarget</text></g><g fill="#000000" font-family="Helvetica" clip-path="url(#mx-clip-25-389-132-26-0)" font-size="12px"><text x="26.5" y="401.5">+ translate()</text></g><path d="M 437.5 358 L 437.5 338 L 259 338 L 259 318.99" fill="none" stroke="#000000" stroke-miterlimit="10" pointer-events="none"/><path d="M 259 293.99 L 266.35 306.49 L 259 318.99 L 251.65 306.49 Z" fill="none" stroke="#000000" stroke-miterlimit="10" pointer-events="none"/><path d="M 357 384 L 357 358 L 518 358 L 518 384" fill="none" stroke="#000000" stroke-miterlimit="10" pointer-events="none"/><path d="M 357 384 L 357 410 L 518 410 L 518 384" fill="none" stroke="#000000" stroke-miterlimit="10" pointer-events="none"/><path d="M 357 384 L 518 384" fill="none" stroke="#000000" stroke-miterlimit="10" pointer-events="none"/><g fill="#000000" font-family="Helvetica" font-weight="bold" text-anchor="middle" font-size="12px"><text x="437" y="375.5">Highlighter</text></g><g fill="#000000" font-family="Helvetica" clip-path="url(#mx-clip-361-389-153-26-0)" font-size="12px"><text x="362.5" y="401.5">+ highlight(Array&lt;number&gt;)</text></g><path d="M 337 130 L 337 104 L 477 104 L 477 130" fill="none" stroke="#000000" stroke-miterlimit="10" pointer-events="none"/><path d="M 337 130 L 337 156 L 477 156 L 477 130" fill="none" stroke="#000000" stroke-miterlimit="10" pointer-events="none"/><path d="M 337 130 L 477 130" fill="none" stroke="#000000" stroke-miterlimit="10" pointer-events="none"/><g fill="#000000" font-family="Helvetica" font-weight="bold" text-anchor="middle" font-size="12px"><text x="406.5" y="121.5">Aligner</text></g><g fill="#000000" font-family="Helvetica" clip-path="url(#mx-clip-341-135-132-26-0)" font-size="12px"><text x="342.5" y="147.5">+ align()</text></g><path d="M 252 215 L 252 188 L 161 188 L 161 162.37" fill="none" stroke="#000000" stroke-miterlimit="10" pointer-events="none"/><path d="M 161 157.12 L 164.5 164.12 L 161 162.37 L 157.5 164.12 Z" fill="#000000" stroke="#000000" stroke-miterlimit="10" pointer-events="none"/><path d="M 357 254 L 342.99 254" fill="none" stroke="#000000" stroke-miterlimit="10" pointer-events="none"/><path d="M 317.99 254 L 330.49 246.65 L 342.99 254 L 330.49 261.35 Z" fill="none" stroke="#000000" stroke-miterlimit="10" pointer-events="none"/><path d="M 447 215 L 447 181.99" fill="none" stroke="#000000" stroke-miterlimit="10" pointer-events="none"/><path d="M 447 156.99 L 454.35 169.49 L 447 181.99 L 439.65 169.49 Z" fill="none" stroke="#000000" stroke-miterlimit="10" pointer-events="none"/><path d="M 357 241 L 357 215 L 517 215 L 517 241" fill="none" stroke="#000000" stroke-miterlimit="10" pointer-events="none"/><path d="M 357 241 L 357 285 L 517 285 L 517 241" fill="none" stroke="#000000" stroke-miterlimit="10" pointer-events="none"/><path d="M 357 241 L 517 241" fill="none" stroke="#000000" stroke-miterlimit="10" pointer-events="none"/><g fill="#000000" font-family="Helvetica" font-weight="bold" text-anchor="middle" font-size="12px"><text x="436.5" y="232.5">Tokenizer</text></g><g fill="#000000" font-family="Helvetica" clip-path="url(#mx-clip-361-246-152-44-0)" font-size="12px"><text x="362.5" y="258.5">+ tokenize(string,</text><text x="362.5" y="272.5">              LanguageCode)</text></g><path d="M 187 241 L 187 215 L 317 215 L 317 241" fill="none" stroke="#000000" stroke-miterlimit="10" pointer-events="none"/><path d="M 187 241 L 187 293 L 317 293 L 317 241" fill="none" stroke="#000000" stroke-miterlimit="10" pointer-events="none"/><path d="M 187 241 L 317 241" fill="none" stroke="#000000" stroke-miterlimit="10" pointer-events="none"/><g fill="#000000" font-family="Helvetica" font-weight="bold" text-anchor="middle" font-size="12px"><text x="251.5" y="232.5">Estimator</text></g><g fill="#000000" font-family="Helvetica" clip-path="url(#mx-clip-191-246-122-26-0)" font-size="12px"><text x="192.5" y="258.5">+ estimate()</text></g><g fill="#000000" font-family="Helvetica" clip-path="url(#mx-clip-191-272-122-26-0)" font-size="12px"><text x="192.5" y="284.5">+ estimate_throttle()</text></g><path d="M 337 39 L 321 39 L 321 188 L 161 188 L 161 162.37" fill="none" stroke="#000000" stroke-miterlimit="10" pointer-events="none"/><path d="M 161 157.12 L 164.5 164.12 L 161 162.37 L 157.5 164.12 Z" fill="#000000" stroke="#000000" stroke-miterlimit="10" pointer-events="none"/><path d="M 337 26 L 337 0 L 477 0 L 477 26" fill="none" stroke="#000000" stroke-miterlimit="10" pointer-events="none"/><path d="M 337 26 L 337 78 L 477 78 L 477 26" fill="none" stroke="#000000" stroke-miterlimit="10" pointer-events="none"/><path d="M 337 26 L 477 26" fill="none" stroke="#000000" stroke-miterlimit="10" pointer-events="none"/><g fill="#000000" font-family="Helvetica" font-weight="bold" text-anchor="middle" font-size="12px"><text x="406.5" y="17.5">Paraphraser</text></g><g fill="#000000" font-family="Helvetica" clip-path="url(#mx-clip-341-31-132-26-0)" font-size="12px"><text x="342.5" y="43.5">+ paraphrase()</text></g><g fill="#000000" font-family="Helvetica" clip-path="url(#mx-clip-341-57-132-26-0)" font-size="12px"><text x="342.5" y="69.5">+ paraphrase_throttle()</text></g></g></svg>